<svg xmlns="http://www.w3.org/2000/svg" viewBox="0 0 1814 978" width="2721" height="1467" role="img" aria-labelledby="title desc" font-family="Helvetica, Arial, sans-serif">
<title id="title">library ER diagram (keys only)</title>
<desc id="desc">Entity relationship diagram of the library database (keys only), in crow's foot notation. book_authors.author_id references authors.author_id. book_authors.book_id references books.book_id. book_genres.book_id references books.book_id. book_genres.genre_id references genres.genre_id. books.publisher_id references publishers.publisher_id. catalog_searches.patron_id references patrons.patron_id. checkouts.checkout_staff_id references staff.staff_id. checkouts.copy_id references copies.copy_id. checkouts.patron_id references patrons.patron_id. checkouts.return_staff_id references staff.staff_id. circulation_scans.checkout_id references checkouts.checkout_id. circulation_scans.staff_id references staff.staff_id. copies.book_id references books.book_id. fines.checkout_id references checkouts.checkout_id. fines.waived_by_staff_id references staff.staff_id. room_reservations.patron_id references patrons.patron_id. room_reservations.room_id references study_rooms.room_id. signup_submissions.patron_id references patrons.patron_id.</desc>
<defs><marker id="arrow-009E73" viewBox="0 0 10 10" refX="9" refY="5" markerWidth="7" markerHeight="7" orient="auto-start-reverse"><path d="M0,0 L10,5 L0,10 z" fill="#009E73"/></marker><marker id="arrow-777777" viewBox="0 0 10 10" refX="9" refY="5" markerWidth="7" markerHeight="7" orient="auto-start-reverse"><path d="M0,0 L10,5 L0,10 z" fill="#777777"/></marker><marker id="arrow-C98500" viewBox="0 0 10 10" refX="9" refY="5" markerWidth="7" markerHeight="7" orient="auto-start-reverse"><path d="M0,0 L10,5 L0,10 z" fill="#C98500"/></marker><marker id="arrow-D55E00" viewBox="0 0 10 10" refX="9" refY="5" markerWidth="7" markerHeight="7" orient="auto-start-reverse"><path d="M0,0 L10,5 L0,10 z" fill="#D55E00"/></marker></defs>
<rect width="100%" height="100%" fill="#FFFFFF"/>
<text x="30" y="36" font-size="20" font-weight="bold" fill="#222222" text-anchor="start">library: a public library's catalog, circulation, and patrons</text>
<path d="M911.0,124.0 H935.0 C963.5,124.0 963.5,100.0 980.0,100.0 H1004.0" fill="none" stroke="#0072B2" stroke-width="2" stroke-opacity="0.9"/>
<path d="M925.0,124.0 L911.0,116.0 M925.0,124.0 L911.0,132.0" fill="none" stroke="#0072B2" stroke-width="2"/>
<circle cx="932.0" cy="124.0" r="4.5" fill="#FFFFFF" stroke="#0072B2" stroke-width="2"/>
<line x1="996.0" y1="93.0" x2="996.0" y2="107.0" stroke="#0072B2" stroke-width="2"/>
<line x1="990.0" y1="93.0" x2="990.0" y2="107.0" stroke="#0072B2" stroke-width="2"/>
<path d="M669.5,100.0 H645.5 C639.5,100.0 639.5,91.0 609.5,91.0 H585.5" fill="none" stroke="#C98500" stroke-width="2" stroke-opacity="0.9"/>
<path d="M655.5,100.0 L669.5,92.0 M655.5,100.0 L669.5,108.0" fill="none" stroke="#C98500" stroke-width="2"/>
<circle cx="648.5" cy="100.0" r="4.5" fill="#FFFFFF" stroke="#C98500" stroke-width="2"/>
<line x1="593.5" y1="87.5" x2="593.5" y2="94.5" stroke="#C98500" stroke-width="2"/>
<line x1="599.5" y1="87.5" x2="599.5" y2="94.5" stroke="#C98500" stroke-width="2"/>
<path d="M669.5,236.0 H645.5 C627.5,236.0 627.5,100.0 609.5,100.0 H585.5" fill="none" stroke="#009E73" stroke-width="2" stroke-opacity="0.9"/>
<path d="M655.5,236.0 L669.5,228.0 M655.5,236.0 L669.5,244.0" fill="none" stroke="#009E73" stroke-width="2"/>
<circle cx="648.5" cy="236.0" r="4.5" fill="#FFFFFF" stroke="#009E73" stroke-width="2"/>
<line x1="593.5" y1="96.5" x2="593.5" y2="103.5" stroke="#009E73" stroke-width="2"/>
<line x1="599.5" y1="96.5" x2="599.5" y2="103.5" stroke="#009E73" stroke-width="2"/>
<path d="M902.4,260.0 H935.0 C975.5,260.0 975.5,212.0 980.0,212.0 H1004.0" fill="none" stroke="#B0558A" stroke-width="2" stroke-opacity="0.9"/>
<path d="M916.4,260.0 L902.4,252.0 M916.4,260.0 L902.4,268.0" fill="none" stroke="#B0558A" stroke-width="2"/>
<circle cx="923.4" cy="260.0" r="4.5" fill="#FFFFFF" stroke="#B0558A" stroke-width="2"/>
<line x1="996.0" y1="205.0" x2="996.0" y2="219.0" stroke="#B0558A" stroke-width="2"/>
<line x1="990.0" y1="205.0" x2="990.0" y2="219.0" stroke="#B0558A" stroke-width="2"/>
<path d="M357.6,124.0 H333.6 C324.6,124.0 324.6,100.0 315.6,100.0 H237.9" fill="none" stroke="#3A8FC7" stroke-width="2" stroke-opacity="0.9"/>
<path d="M343.6,124.0 L357.6,116.0 M343.6,124.0 L357.6,132.0" fill="none" stroke="#3A8FC7" stroke-width="2"/>
<circle cx="336.6" cy="124.0" r="4.5" fill="#FFFFFF" stroke="#3A8FC7" stroke-width="2"/>
<line x1="245.9" y1="93.0" x2="245.9" y2="107.0" stroke="#3A8FC7" stroke-width="2"/>
<circle cx="257.9" cy="100.0" r="4.5" fill="#FFFFFF" stroke="#3A8FC7" stroke-width="2"/>
<path d="M1279.9,616.0 H1347.1 C1345.6,616.0 1345.6,713.0 1428.1,713.0 H1452.1" fill="none" stroke="#A88A00" stroke-width="2" stroke-opacity="0.9"/>
<path d="M1293.9,616.0 L1279.9,608.0 M1293.9,616.0 L1279.9,624.0" fill="none" stroke="#A88A00" stroke-width="2"/>
<circle cx="1300.9" cy="616.0" r="4.5" fill="#FFFFFF" stroke="#A88A00" stroke-width="2"/>
<line x1="1444.1" y1="709.5" x2="1444.1" y2="716.5" stroke="#A88A00" stroke-width="2"/>
<circle cx="1432.1" cy="713.0" r="3.5" fill="#FFFFFF" stroke="#A88A00" stroke-width="2"/>
<path d="M1270.9,416.0 H1347.1 C1393.5999999999997,416.0 1393.5999999999997,278.5 1428.1,278.5 H1452.1" fill="none" stroke="#0072B2" stroke-width="2" stroke-opacity="0.9"/>
<path d="M1284.9,416.0 L1270.9,408.0 M1284.9,416.0 L1270.9,424.0" fill="none" stroke="#0072B2" stroke-width="2"/>
<circle cx="1291.9" cy="416.0" r="4.5" fill="#FFFFFF" stroke="#0072B2" stroke-width="2"/>
<line x1="1444.1" y1="274.0" x2="1444.1" y2="283.0" stroke="#0072B2" stroke-width="2"/>
<line x1="1438.1" y1="274.0" x2="1438.1" y2="283.0" stroke="#0072B2" stroke-width="2"/>
<path d="M1004.0,368.0 H980.0 C951.5,368.0 951.5,348.0 935.0,348.0 H859.4" fill="none" stroke="#C98500" stroke-width="2" stroke-opacity="0.9"/>
<path d="M990.0,368.0 L1004.0,360.0 M990.0,368.0 L1004.0,376.0" fill="none" stroke="#C98500" stroke-width="2"/>
<circle cx="983.0" cy="368.0" r="4.5" fill="#FFFFFF" stroke="#C98500" stroke-width="2"/>
<line x1="867.4" y1="341.0" x2="867.4" y2="355.0" stroke="#C98500" stroke-width="2"/>
<line x1="873.4" y1="341.0" x2="873.4" y2="355.0" stroke="#C98500" stroke-width="2"/>
<path d="M1270.9,392.0 H1347.1 C1357.6,392.0 1357.6,707.0 1428.1,707.0 H1452.1" fill="none" stroke="#009E73" stroke-width="2" stroke-opacity="0.9"/>
<path d="M1284.9,392.0 L1270.9,384.0 M1284.9,392.0 L1270.9,400.0" fill="none" stroke="#009E73" stroke-width="2"/>
<circle cx="1291.9" cy="392.0" r="4.5" fill="#FFFFFF" stroke="#009E73" stroke-width="2"/>
<line x1="1444.1" y1="703.5" x2="1444.1" y2="710.5" stroke="#009E73" stroke-width="2"/>
<line x1="1438.1" y1="703.5" x2="1438.1" y2="710.5" stroke="#009E73" stroke-width="2"/>
<path d="M1270.9,440.0 H1347.1 C1405.5999999999997,440.0 1405.5999999999997,289.5 1428.1,289.5 H1452.1" fill="none" stroke="#B0558A" stroke-width="2" stroke-opacity="0.9"/>
<path d="M1284.9,440.0 L1270.9,432.0 M1284.9,440.0 L1270.9,448.0" fill="none" stroke="#B0558A" stroke-width="2"/>
<circle cx="1291.9" cy="440.0" r="4.5" fill="#FFFFFF" stroke="#B0558A" stroke-width="2"/>
<line x1="1444.1" y1="285.0" x2="1444.1" y2="294.0" stroke="#B0558A" stroke-width="2"/>
<circle cx="1432.1" cy="289.5" r="3.5" fill="#FFFFFF" stroke="#B0558A" stroke-width="2"/>
<path d="M1452.1,580.0 H1428.1 C1369.5999999999997,580.0 1369.5999999999997,349.5 1347.1,349.5 H1270.9" fill="none" stroke="#3A8FC7" stroke-width="2" stroke-opacity="0.9"/>
<path d="M1438.1,580.0 L1452.1,572.0 M1438.1,580.0 L1452.1,588.0" fill="none" stroke="#3A8FC7" stroke-width="2"/>
<circle cx="1431.1" cy="580.0" r="4.5" fill="#FFFFFF" stroke="#3A8FC7" stroke-width="2"/>
<line x1="1278.9" y1="345.0" x2="1278.9" y2="354.0" stroke="#3A8FC7" stroke-width="2"/>
<line x1="1284.9" y1="345.0" x2="1284.9" y2="354.0" stroke="#3A8FC7" stroke-width="2"/>
<path d="M1736.6,604.0 H1776.8 C1800.8,604.0 1800.8,278.5 1776.8,278.5 H1628.8" fill="none" stroke="#A88A00" stroke-width="2" stroke-opacity="0.9"/>
<path d="M1750.6,604.0 L1736.6,596.0 M1750.6,604.0 L1736.6,612.0" fill="none" stroke="#A88A00" stroke-width="2"/>
<circle cx="1757.6" cy="604.0" r="4.5" fill="#FFFFFF" stroke="#A88A00" stroke-width="2"/>
<line x1="1636.8" y1="274.0" x2="1636.8" y2="283.0" stroke="#A88A00" stroke-width="2"/>
<line x1="1642.8" y1="274.0" x2="1642.8" y2="283.0" stroke="#A88A00" stroke-width="2"/>
<path d="M669.5,372.0 H645.5 C615.5,372.0 615.5,109.0 609.5,109.0 H585.5" fill="none" stroke="#0072B2" stroke-width="2" stroke-opacity="0.9"/>
<path d="M655.5,372.0 L669.5,364.0 M655.5,372.0 L669.5,380.0" fill="none" stroke="#0072B2" stroke-width="2"/>
<circle cx="648.5" cy="372.0" r="4.5" fill="#FFFFFF" stroke="#0072B2" stroke-width="2"/>
<line x1="593.5" y1="105.5" x2="593.5" y2="112.5" stroke="#0072B2" stroke-width="2"/>
<line x1="599.5" y1="105.5" x2="599.5" y2="112.5" stroke="#0072B2" stroke-width="2"/>
<path d="M1452.1,420.0 H1428.1 C1381.5999999999997,420.0 1381.5999999999997,338.5 1347.1,338.5 H1270.9" fill="none" stroke="#C98500" stroke-width="2" stroke-opacity="0.9"/>
<line x1="1444.1" y1="413.0" x2="1444.1" y2="427.0" stroke="#C98500" stroke-width="2"/>
<circle cx="1432.1" cy="420.0" r="4.5" fill="#FFFFFF" stroke="#C98500" stroke-width="2"/>
<line x1="1278.9" y1="334.0" x2="1278.9" y2="343.0" stroke="#C98500" stroke-width="2"/>
<line x1="1284.9" y1="334.0" x2="1284.9" y2="343.0" stroke="#C98500" stroke-width="2"/>
<path d="M1752.8,444.0 H1776.8 C1788.8,444.0 1788.8,289.5 1776.8,289.5 H1628.8" fill="none" stroke="#009E73" stroke-width="2" stroke-opacity="0.9"/>
<path d="M1766.8,444.0 L1752.8,436.0 M1766.8,444.0 L1752.8,452.0" fill="none" stroke="#009E73" stroke-width="2"/>
<circle cx="1773.8" cy="444.0" r="4.5" fill="#FFFFFF" stroke="#009E73" stroke-width="2"/>
<line x1="1636.8" y1="285.0" x2="1636.8" y2="294.0" stroke="#009E73" stroke-width="2"/>
<circle cx="1648.8" cy="289.5" r="3.5" fill="#FFFFFF" stroke="#009E73" stroke-width="2"/>
<path d="M1288.5,776.0 H1347.1 C1417.5999999999997,776.0 1417.5999999999997,719.0 1428.1,719.0 H1452.1" fill="none" stroke="#B0558A" stroke-width="2" stroke-opacity="0.9"/>
<path d="M1302.5,776.0 L1288.5,768.0 M1302.5,776.0 L1288.5,784.0" fill="none" stroke="#B0558A" stroke-width="2"/>
<circle cx="1309.5" cy="776.0" r="4.5" fill="#FFFFFF" stroke="#B0558A" stroke-width="2"/>
<line x1="1444.1" y1="715.5" x2="1444.1" y2="722.5" stroke="#B0558A" stroke-width="2"/>
<line x1="1438.1" y1="715.5" x2="1438.1" y2="722.5" stroke="#B0558A" stroke-width="2"/>
<path d="M1004.0,752.0 H980.0 C939.5,752.0 939.5,484.0 935.0,484.0 H882.4" fill="none" stroke="#3A8FC7" stroke-width="2" stroke-opacity="0.9"/>
<path d="M990.0,752.0 L1004.0,744.0 M990.0,752.0 L1004.0,760.0" fill="none" stroke="#3A8FC7" stroke-width="2"/>
<circle cx="983.0" cy="752.0" r="4.5" fill="#FFFFFF" stroke="#3A8FC7" stroke-width="2"/>
<line x1="890.4" y1="477.0" x2="890.4" y2="491.0" stroke="#3A8FC7" stroke-width="2"/>
<line x1="896.4" y1="477.0" x2="896.4" y2="491.0" stroke="#3A8FC7" stroke-width="2"/>
<path d="M1323.1,912.0 H1347.1 C1429.5999999999997,912.0 1429.5999999999997,725.0 1428.1,725.0 H1452.1" fill="none" stroke="#A88A00" stroke-width="2" stroke-opacity="0.9"/>
<line x1="1331.1" y1="905.0" x2="1331.1" y2="919.0" stroke="#A88A00" stroke-width="2"/>
<circle cx="1343.1" cy="912.0" r="4.5" fill="#FFFFFF" stroke="#A88A00" stroke-width="2"/>
<line x1="1444.1" y1="721.5" x2="1444.1" y2="728.5" stroke="#A88A00" stroke-width="2"/>
<circle cx="1432.1" cy="725.0" r="3.5" fill="#FFFFFF" stroke="#A88A00" stroke-width="2"/>
<rect x="1004.0" y="64" width="184.5" height="72" rx="6" fill="#FFFFFF" stroke="#777777" stroke-width="1.5"/>
<path d="M1004.0,88 V70 Q1004.0,64 1010.0,64 H1182.5 Q1188.5,64 1188.5,70 V88 Z" fill="#E4E4E4" stroke="#777777" stroke-width="1.5"/>
<text x="1014.0" y="81.0" font-size="14" font-weight="bold" fill="#222222" text-anchor="start" font-family="Consolas, Menlo, 'Courier New', monospace">authors</text>
<text x="1014.0" y="105.0" font-size="13" font-weight="bold" fill="#222222" text-anchor="start" font-family="Consolas, Menlo, 'Courier New', monospace">author_id</text>
<line x1="1014.0" y1="108.0" x2="1082.4" y2="108.0" stroke="#222222" stroke-width="1.2"/>
<text x="1090.2" y="105.0" font-size="12" font-weight="normal" fill="#555555" text-anchor="start" font-family="Consolas, Menlo, 'Courier New', monospace">integer</text>
<path d="M1167.5,98.6 H1176.5 V103.6 H1174.8 V101.4 H1173.2 V103.0 H1171.6 V101.4 H1167.5 Z" fill="#E3B32B" stroke="#8C6D00" stroke-width="0.8"/>
<circle cx="1164.5" cy="100.0" r="4.2" fill="#E3B32B" stroke="#8C6D00" stroke-width="0.8"/>
<circle cx="1163.9" cy="100.0" r="1.4" fill="#FFFFFF"/>
<line x1="1004.0" y1="112" x2="1188.5" y2="112" stroke="#DDDDDD" stroke-width="1"/>
<text x="1014.0" y="129.0" font-size="12" font-weight="normal" fill="#555555" text-anchor="start" font-style="italic">+ 2 more columns</text>
<rect x="669.5" y="64" width="241.5" height="96" rx="6" fill="#FFFFFF" stroke="#777777" stroke-width="1.5"/>
<path d="M669.5,88 V70 Q669.5,64 675.5,64 H905.0 Q911.0,64 911.0,70 V88 Z" fill="#E4E4E4" stroke="#777777" stroke-width="1.5"/>
<text x="679.5" y="81.0" font-size="14" font-weight="bold" fill="#222222" text-anchor="start" font-family="Consolas, Menlo, 'Courier New', monospace">book_authors</text>
<rect x="670.5" y="88" width="239.5" height="24" fill="#FCEDCC"/>
<rect x="670.5" y="88" width="5" height="24" fill="#C98500"/>
<text x="679.5" y="105.0" font-size="13" font-weight="bold" fill="#222222" text-anchor="start" font-family="Consolas, Menlo, 'Courier New', monospace">book_id</text>
<line x1="679.5" y1="108.0" x2="732.7" y2="108.0" stroke="#222222" stroke-width="1.2"/>
<text x="792.7" y="105.0" font-size="12" font-weight="normal" fill="#555555" text-anchor="start" font-family="Consolas, Menlo, 'Courier New', monospace">integer</text>
<path d="M870.0,98.6 H879.0 V103.6 H877.3 V101.4 H875.7 V103.0 H874.1 V101.4 H870.0 Z" fill="#E3B32B" stroke="#8C6D00" stroke-width="0.8"/>
<circle cx="867.0" cy="100.0" r="4.2" fill="#E3B32B" stroke="#8C6D00" stroke-width="0.8"/>
<circle cx="866.4" cy="100.0" r="1.4" fill="#FFFFFF"/>
<g transform="rotate(-40 891.0 100.0)" fill="none" stroke="#2E8B57" stroke-width="1.8"><rect x="883.0" y="97.0" width="9.5" height="6" rx="3"/><rect x="889.5" y="97.0" width="9.5" height="6" rx="3"/></g>
<rect x="670.5" y="112" width="239.5" height="24" fill="#DCEAF5"/>
<rect x="670.5" y="112" width="5" height="24" fill="#0072B2"/>
<line x1="669.5" y1="112" x2="911.0" y2="112" stroke="#DDDDDD" stroke-width="1"/>
<text x="679.5" y="129.0" font-size="13" font-weight="bold" fill="#222222" text-anchor="start" font-family="Consolas, Menlo, 'Courier New', monospace">author_id</text>
<line x1="679.5" y1="132.0" x2="747.9" y2="132.0" stroke="#222222" stroke-width="1.2"/>
<text x="792.7" y="129.0" font-size="12" font-weight="normal" fill="#555555" text-anchor="start" font-family="Consolas, Menlo, 'Courier New', monospace">integer</text>
<path d="M870.0,122.6 H879.0 V127.6 H877.3 V125.4 H875.7 V127.0 H874.1 V125.4 H870.0 Z" fill="#E3B32B" stroke="#8C6D00" stroke-width="0.8"/>
<circle cx="867.0" cy="124.0" r="4.2" fill="#E3B32B" stroke="#8C6D00" stroke-width="0.8"/>
<circle cx="866.4" cy="124.0" r="1.4" fill="#FFFFFF"/>
<g transform="rotate(-40 891.0 124.0)" fill="none" stroke="#2E8B57" stroke-width="1.8"><rect x="883.0" y="121.0" width="9.5" height="6" rx="3"/><rect x="889.5" y="121.0" width="9.5" height="6" rx="3"/></g>
<line x1="669.5" y1="136" x2="911.0" y2="136" stroke="#DDDDDD" stroke-width="1"/>
<text x="679.5" y="153.0" font-size="12" font-weight="normal" fill="#555555" text-anchor="start" font-style="italic">+ 1 more column</text>
<rect x="669.5" y="200" width="232.9" height="72" rx="6" fill="#FFFFFF" stroke="#777777" stroke-width="1.5"/>
<path d="M669.5,224 V206 Q669.5,200 675.5,200 H896.4 Q902.4,200 902.4,206 V224 Z" fill="#E4E4E4" stroke="#777777" stroke-width="1.5"/>
<text x="679.5" y="217.0" font-size="14" font-weight="bold" fill="#222222" text-anchor="start" font-family="Consolas, Menlo, 'Courier New', monospace">book_genres</text>
<rect x="670.5" y="224" width="230.9" height="24" fill="#D3EFE6"/>
<rect x="670.5" y="224" width="5" height="24" fill="#009E73"/>
<text x="679.5" y="241.0" font-size="13" font-weight="bold" fill="#222222" text-anchor="start" font-family="Consolas, Menlo, 'Courier New', monospace">book_id</text>
<line x1="679.5" y1="244.0" x2="732.7" y2="244.0" stroke="#222222" stroke-width="1.2"/>
<text x="784.1" y="241.0" font-size="12" font-weight="normal" fill="#555555" text-anchor="start" font-family="Consolas, Menlo, 'Courier New', monospace">integer</text>
<path d="M861.4000000000001,234.6 H870.4000000000001 V239.6 H868.7 V237.4 H867.1000000000001 V239.0 H865.5000000000001 V237.4 H861.4000000000001 Z" fill="#E3B32B" stroke="#8C6D00" stroke-width="0.8"/>
<circle cx="858.4000000000001" cy="236.0" r="4.2" fill="#E3B32B" stroke="#8C6D00" stroke-width="0.8"/>
<circle cx="857.8000000000001" cy="236.0" r="1.4" fill="#FFFFFF"/>
<g transform="rotate(-40 882.4000000000001 236.0)" fill="none" stroke="#2E8B57" stroke-width="1.8"><rect x="874.4000000000001" y="233.0" width="9.5" height="6" rx="3"/><rect x="880.9000000000001" y="233.0" width="9.5" height="6" rx="3"/></g>
<rect x="670.5" y="248" width="230.9" height="24" fill="#F5E1EC"/>
<rect x="670.5" y="248" width="5" height="24" fill="#B0558A"/>
<line x1="669.5" y1="248" x2="902.4" y2="248" stroke="#DDDDDD" stroke-width="1"/>
<text x="679.5" y="265.0" font-size="13" font-weight="bold" fill="#222222" text-anchor="start" font-family="Consolas, Menlo, 'Courier New', monospace">genre_id</text>
<line x1="679.5" y1="268.0" x2="740.3" y2="268.0" stroke="#222222" stroke-width="1.2"/>
<text x="784.1" y="265.0" font-size="12" font-weight="normal" fill="#555555" text-anchor="start" font-family="Consolas, Menlo, 'Courier New', monospace">integer</text>
<path d="M861.4000000000001,258.6 H870.4000000000001 V263.6 H868.7 V261.4 H867.1000000000001 V263.0 H865.5000000000001 V261.4 H861.4000000000001 Z" fill="#E3B32B" stroke="#8C6D00" stroke-width="0.8"/>
<circle cx="858.4000000000001" cy="260.0" r="4.2" fill="#E3B32B" stroke="#8C6D00" stroke-width="0.8"/>
<circle cx="857.8000000000001" cy="260.0" r="1.4" fill="#FFFFFF"/>
<g transform="rotate(-40 882.4000000000001 260.0)" fill="none" stroke="#2E8B57" stroke-width="1.8"><rect x="874.4000000000001" y="257.0" width="9.5" height="6" rx="3"/><rect x="880.9000000000001" y="257.0" width="9.5" height="6" rx="3"/></g>
<rect x="357.6" y="64" width="227.9" height="96" rx="6" fill="#FFFFFF" stroke="#777777" stroke-width="1.5"/>
<path d="M357.6,88 V70 Q357.6,64 363.6,64 H579.5 Q585.5,64 585.5,70 V88 Z" fill="#E4E4E4" stroke="#777777" stroke-width="1.5"/>
<text x="367.6" y="81.0" font-size="14" font-weight="bold" fill="#222222" text-anchor="start" font-family="Consolas, Menlo, 'Courier New', monospace">books</text>
<text x="367.6" y="105.0" font-size="13" font-weight="bold" fill="#222222" text-anchor="start" font-family="Consolas, Menlo, 'Courier New', monospace">book_id</text>
<line x1="367.6" y1="108.0" x2="420.8" y2="108.0" stroke="#222222" stroke-width="1.2"/>
<text x="467.20000000000005" y="105.0" font-size="12" font-weight="normal" fill="#555555" text-anchor="start" font-family="Consolas, Menlo, 'Courier New', monospace">integer</text>
<path d="M544.5,98.6 H553.5 V103.6 H551.8 V101.4 H550.2 V103.0 H548.6 V101.4 H544.5 Z" fill="#E3B32B" stroke="#8C6D00" stroke-width="0.8"/>
<circle cx="541.5" cy="100.0" r="4.2" fill="#E3B32B" stroke="#8C6D00" stroke-width="0.8"/>
<circle cx="540.9" cy="100.0" r="1.4" fill="#FFFFFF"/>
<rect x="358.6" y="112" width="225.9" height="24" fill="#DDEEF8"/>
<rect x="358.6" y="112" width="5" height="24" fill="#3A8FC7"/>
<line x1="357.6" y1="112" x2="585.5" y2="112" stroke="#DDDDDD" stroke-width="1"/>
<text x="367.6" y="129.0" font-size="13" font-weight="normal" fill="#222222" text-anchor="start" font-family="Consolas, Menlo, 'Courier New', monospace">publisher_id</text>
<text x="467.20000000000005" y="129.0" font-size="12" font-weight="normal" fill="#555555" text-anchor="start" font-family="Consolas, Menlo, 'Courier New', monospace">integer</text>
<g transform="rotate(-40 565.5 124.0)" fill="none" stroke="#2E8B57" stroke-width="1.8"><rect x="557.5" y="121.0" width="9.5" height="6" rx="3"/><rect x="564.0" y="121.0" width="9.5" height="6" rx="3"/></g>
<line x1="357.6" y1="136" x2="585.5" y2="136" stroke="#DDDDDD" stroke-width="1"/>
<text x="367.6" y="153.0" font-size="12" font-weight="normal" fill="#555555" text-anchor="start" font-style="italic">+ 6 more columns</text>
<rect x="1004.0" y="556" width="275.9" height="96" rx="6" fill="#FFFFFF" stroke="#777777" stroke-width="1.5"/>
<path d="M1004.0,580 V562 Q1004.0,556 1010.0,556 H1273.9 Q1279.9,556 1279.9,562 V580 Z" fill="#E4E4E4" stroke="#777777" stroke-width="1.5"/>
<text x="1014.0" y="573.0" font-size="14" font-weight="bold" fill="#222222" text-anchor="start" font-family="Consolas, Menlo, 'Courier New', monospace">catalog_searches</text>
<text x="1014.0" y="597.0" font-size="13" font-weight="bold" fill="#222222" text-anchor="start" font-family="Consolas, Menlo, 'Courier New', monospace">search_id</text>
<line x1="1014.0" y1="600.0" x2="1082.4" y2="600.0" stroke="#222222" stroke-width="1.2"/>
<text x="1161.6" y="597.0" font-size="12" font-weight="normal" fill="#555555" text-anchor="start" font-family="Consolas, Menlo, 'Courier New', monospace">integer</text>
<path d="M1238.8999999999999,590.6 H1247.8999999999999 V595.6 H1246.1999999999998 V593.4 H1244.6 V595.0 H1242.9999999999998 V593.4 H1238.8999999999999 Z" fill="#E3B32B" stroke="#8C6D00" stroke-width="0.8"/>
<circle cx="1235.8999999999999" cy="592.0" r="4.2" fill="#E3B32B" stroke="#8C6D00" stroke-width="0.8"/>
<circle cx="1235.3" cy="592.0" r="1.4" fill="#FFFFFF"/>
<rect x="1005.0" y="604" width="273.9" height="24" fill="#F7F0C8"/>
<rect x="1005.0" y="604" width="5" height="24" fill="#A88A00"/>
<line x1="1004.0" y1="604" x2="1279.9" y2="604" stroke="#DDDDDD" stroke-width="1"/>
<text x="1014.0" y="621.0" font-size="13" font-weight="normal" fill="#222222" text-anchor="start" font-family="Consolas, Menlo, 'Courier New', monospace">patron_id</text>
<text x="1161.6" y="621.0" font-size="12" font-weight="normal" fill="#555555" text-anchor="start" font-family="Consolas, Menlo, 'Courier New', monospace">integer</text>
<g transform="rotate(-40 1259.8999999999999 616.0)" fill="none" stroke="#2E8B57" stroke-width="1.8"><rect x="1251.8999999999999" y="613.0" width="9.5" height="6" rx="3"/><rect x="1258.3999999999999" y="613.0" width="9.5" height="6" rx="3"/></g>
<line x1="1004.0" y1="628" x2="1279.9" y2="628" stroke="#DDDDDD" stroke-width="1"/>
<text x="1014.0" y="645.0" font-size="12" font-weight="normal" fill="#555555" text-anchor="start" font-style="italic">+ 2 more columns</text>
<rect x="1004.0" y="308" width="266.9" height="168" rx="6" fill="#FFFFFF" stroke="#777777" stroke-width="1.5"/>
<path d="M1004.0,332 V314 Q1004.0,308 1010.0,308 H1264.9 Q1270.9,308 1270.9,314 V332 Z" fill="#E4E4E4" stroke="#777777" stroke-width="1.5"/>
<text x="1014.0" y="325.0" font-size="14" font-weight="bold" fill="#222222" text-anchor="start" font-family="Consolas, Menlo, 'Courier New', monospace">checkouts</text>
<text x="1014.0" y="349.0" font-size="13" font-weight="bold" fill="#222222" text-anchor="start" font-family="Consolas, Menlo, 'Courier New', monospace">checkout_id</text>
<line x1="1014.0" y1="352.0" x2="1097.6" y2="352.0" stroke="#222222" stroke-width="1.2"/>
<text x="1152.6" y="349.0" font-size="12" font-weight="normal" fill="#555555" text-anchor="start" font-family="Consolas, Menlo, 'Courier New', monospace">integer</text>
<path d="M1229.8999999999999,342.6 H1238.8999999999999 V347.6 H1237.1999999999998 V345.4 H1235.6 V347.0 H1233.9999999999998 V345.4 H1229.8999999999999 Z" fill="#E3B32B" stroke="#8C6D00" stroke-width="0.8"/>
<circle cx="1226.8999999999999" cy="344.0" r="4.2" fill="#E3B32B" stroke="#8C6D00" stroke-width="0.8"/>
<circle cx="1226.3" cy="344.0" r="1.4" fill="#FFFFFF"/>
<rect x="1005.0" y="356" width="264.9" height="24" fill="#FCEDCC"/>
<rect x="1005.0" y="356" width="5" height="24" fill="#C98500"/>
<line x1="1004.0" y1="356" x2="1270.9" y2="356" stroke="#DDDDDD" stroke-width="1"/>
<text x="1014.0" y="373.0" font-size="13" font-weight="normal" fill="#222222" text-anchor="start" font-family="Consolas, Menlo, 'Courier New', monospace">copy_id</text>
<text x="1152.6" y="373.0" font-size="12" font-weight="normal" fill="#555555" text-anchor="start" font-family="Consolas, Menlo, 'Courier New', monospace">integer</text>
<g transform="rotate(-40 1250.8999999999999 368.0)" fill="none" stroke="#2E8B57" stroke-width="1.8"><rect x="1242.8999999999999" y="365.0" width="9.5" height="6" rx="3"/><rect x="1249.3999999999999" y="365.0" width="9.5" height="6" rx="3"/></g>
<rect x="1005.0" y="380" width="264.9" height="24" fill="#D3EFE6"/>
<rect x="1005.0" y="380" width="5" height="24" fill="#009E73"/>
<line x1="1004.0" y1="380" x2="1270.9" y2="380" stroke="#DDDDDD" stroke-width="1"/>
<text x="1014.0" y="397.0" font-size="13" font-weight="normal" fill="#222222" text-anchor="start" font-family="Consolas, Menlo, 'Courier New', monospace">patron_id</text>
<text x="1152.6" y="397.0" font-size="12" font-weight="normal" fill="#555555" text-anchor="start" font-family="Consolas, Menlo, 'Courier New', monospace">integer</text>
<g transform="rotate(-40 1250.8999999999999 392.0)" fill="none" stroke="#2E8B57" stroke-width="1.8"><rect x="1242.8999999999999" y="389.0" width="9.5" height="6" rx="3"/><rect x="1249.3999999999999" y="389.0" width="9.5" height="6" rx="3"/></g>
<rect x="1005.0" y="404" width="264.9" height="24" fill="#DCEAF5"/>
<rect x="1005.0" y="404" width="5" height="24" fill="#0072B2"/>
<line x1="1004.0" y1="404" x2="1270.9" y2="404" stroke="#DDDDDD" stroke-width="1"/>
<text x="1014.0" y="421.0" font-size="13" font-weight="normal" fill="#222222" text-anchor="start" font-family="Consolas, Menlo, 'Courier New', monospace">checkout_staff_id</text>
<text x="1152.6" y="421.0" font-size="12" font-weight="normal" fill="#555555" text-anchor="start" font-family="Consolas, Menlo, 'Courier New', monospace">integer</text>
<g transform="rotate(-40 1250.8999999999999 416.0)" fill="none" stroke="#2E8B57" stroke-width="1.8"><rect x="1242.8999999999999" y="413.0" width="9.5" height="6" rx="3"/><rect x="1249.3999999999999" y="413.0" width="9.5" height="6" rx="3"/></g>
<rect x="1005.0" y="428" width="264.9" height="24" fill="#F5E1EC"/>
<rect x="1005.0" y="428" width="5" height="24" fill="#B0558A"/>
<line x1="1004.0" y1="428" x2="1270.9" y2="428" stroke="#DDDDDD" stroke-width="1"/>
<text x="1014.0" y="445.0" font-size="13" font-weight="normal" fill="#222222" text-anchor="start" font-family="Consolas, Menlo, 'Courier New', monospace">return_staff_id</text>
<text x="1152.6" y="445.0" font-size="12" font-weight="normal" fill="#555555" text-anchor="start" font-family="Consolas, Menlo, 'Courier New', monospace">integer</text>
<g transform="rotate(-40 1250.8999999999999 440.0)" fill="none" stroke="#2E8B57" stroke-width="1.8"><rect x="1242.8999999999999" y="437.0" width="9.5" height="6" rx="3"/><rect x="1249.3999999999999" y="437.0" width="9.5" height="6" rx="3"/></g>
<line x1="1004.0" y1="452" x2="1270.9" y2="452" stroke="#DDDDDD" stroke-width="1"/>
<text x="1014.0" y="469.0" font-size="12" font-weight="normal" fill="#555555" text-anchor="start" font-style="italic">+ 3 more columns</text>
<rect x="1452.1" y="520" width="284.5" height="120" rx="6" fill="#FFFFFF" stroke="#777777" stroke-width="1.5"/>
<path d="M1452.1,544 V526 Q1452.1,520 1458.1,520 H1730.6 Q1736.6,520 1736.6,526 V544 Z" fill="#E4E4E4" stroke="#777777" stroke-width="1.5"/>
<text x="1462.1" y="537.0" font-size="14" font-weight="bold" fill="#222222" text-anchor="start" font-family="Consolas, Menlo, 'Courier New', monospace">circulation_scans</text>
<text x="1462.1" y="561.0" font-size="13" font-weight="bold" fill="#222222" text-anchor="start" font-family="Consolas, Menlo, 'Courier New', monospace">scan_id</text>
<line x1="1462.1" y1="564.0" x2="1515.3" y2="564.0" stroke="#222222" stroke-width="1.2"/>
<text x="1618.3" y="561.0" font-size="12" font-weight="normal" fill="#555555" text-anchor="start" font-family="Consolas, Menlo, 'Courier New', monospace">integer</text>
<path d="M1695.6,554.6 H1704.6 V559.6 H1702.8999999999999 V557.4 H1701.3 V559.0 H1699.6999999999998 V557.4 H1695.6 Z" fill="#E3B32B" stroke="#8C6D00" stroke-width="0.8"/>
<circle cx="1692.6" cy="556.0" r="4.2" fill="#E3B32B" stroke="#8C6D00" stroke-width="0.8"/>
<circle cx="1692.0" cy="556.0" r="1.4" fill="#FFFFFF"/>
<rect x="1453.1" y="568" width="282.5" height="24" fill="#DDEEF8"/>
<rect x="1453.1" y="568" width="5" height="24" fill="#3A8FC7"/>
<line x1="1452.1" y1="568" x2="1736.6" y2="568" stroke="#DDDDDD" stroke-width="1"/>
<text x="1462.1" y="585.0" font-size="13" font-weight="normal" fill="#222222" text-anchor="start" font-family="Consolas, Menlo, 'Courier New', monospace">checkout_id</text>
<text x="1618.3" y="585.0" font-size="12" font-weight="normal" fill="#555555" text-anchor="start" font-family="Consolas, Menlo, 'Courier New', monospace">integer</text>
<g transform="rotate(-40 1716.6 580.0)" fill="none" stroke="#2E8B57" stroke-width="1.8"><rect x="1708.6" y="577.0" width="9.5" height="6" rx="3"/><rect x="1715.1" y="577.0" width="9.5" height="6" rx="3"/></g>
<rect x="1453.1" y="592" width="282.5" height="24" fill="#F7F0C8"/>
<rect x="1453.1" y="592" width="5" height="24" fill="#A88A00"/>
<line x1="1452.1" y1="592" x2="1736.6" y2="592" stroke="#DDDDDD" stroke-width="1"/>
<text x="1462.1" y="609.0" font-size="13" font-weight="normal" fill="#222222" text-anchor="start" font-family="Consolas, Menlo, 'Courier New', monospace">staff_id</text>
<text x="1618.3" y="609.0" font-size="12" font-weight="normal" fill="#555555" text-anchor="start" font-family="Consolas, Menlo, 'Courier New', monospace">integer</text>
<g transform="rotate(-40 1716.6 604.0)" fill="none" stroke="#2E8B57" stroke-width="1.8"><rect x="1708.6" y="601.0" width="9.5" height="6" rx="3"/><rect x="1715.1" y="601.0" width="9.5" height="6" rx="3"/></g>
<line x1="1452.1" y1="616" x2="1736.6" y2="616" stroke="#DDDDDD" stroke-width="1"/>
<text x="1462.1" y="633.0" font-size="12" font-weight="normal" fill="#555555" text-anchor="start" font-style="italic">+ 2 more columns</text>
<rect x="669.5" y="312" width="189.9" height="96" rx="6" fill="#FFFFFF" stroke="#777777" stroke-width="1.5"/>
<path d="M669.5,336 V318 Q669.5,312 675.5,312 H853.4 Q859.4,312 859.4,318 V336 Z" fill="#E4E4E4" stroke="#777777" stroke-width="1.5"/>
<text x="679.5" y="329.0" font-size="14" font-weight="bold" fill="#222222" text-anchor="start" font-family="Consolas, Menlo, 'Courier New', monospace">copies</text>
<text x="679.5" y="353.0" font-size="13" font-weight="bold" fill="#222222" text-anchor="start" font-family="Consolas, Menlo, 'Courier New', monospace">copy_id</text>
<line x1="679.5" y1="356.0" x2="732.7" y2="356.0" stroke="#222222" stroke-width="1.2"/>
<text x="741.1" y="353.0" font-size="12" font-weight="normal" fill="#555555" text-anchor="start" font-family="Consolas, Menlo, 'Courier New', monospace">integer</text>
<path d="M818.4000000000001,346.6 H827.4000000000001 V351.6 H825.7 V349.4 H824.1000000000001 V351.0 H822.5000000000001 V349.4 H818.4000000000001 Z" fill="#E3B32B" stroke="#8C6D00" stroke-width="0.8"/>
<circle cx="815.4000000000001" cy="348.0" r="4.2" fill="#E3B32B" stroke="#8C6D00" stroke-width="0.8"/>
<circle cx="814.8000000000001" cy="348.0" r="1.4" fill="#FFFFFF"/>
<rect x="670.5" y="360" width="187.9" height="24" fill="#DCEAF5"/>
<rect x="670.5" y="360" width="5" height="24" fill="#0072B2"/>
<line x1="669.5" y1="360" x2="859.4" y2="360" stroke="#DDDDDD" stroke-width="1"/>
<text x="679.5" y="377.0" font-size="13" font-weight="normal" fill="#222222" text-anchor="start" font-family="Consolas, Menlo, 'Courier New', monospace">book_id</text>
<text x="741.1" y="377.0" font-size="12" font-weight="normal" fill="#555555" text-anchor="start" font-family="Consolas, Menlo, 'Courier New', monospace">integer</text>
<g transform="rotate(-40 839.4000000000001 372.0)" fill="none" stroke="#2E8B57" stroke-width="1.8"><rect x="831.4000000000001" y="369.0" width="9.5" height="6" rx="3"/><rect x="837.9000000000001" y="369.0" width="9.5" height="6" rx="3"/></g>
<line x1="669.5" y1="384" x2="859.4" y2="384" stroke="#DDDDDD" stroke-width="1"/>
<text x="679.5" y="401.0" font-size="12" font-weight="normal" fill="#555555" text-anchor="start" font-style="italic">+ 4 more columns</text>
<rect x="1452.1" y="360" width="300.70000000000005" height="120" rx="6" fill="#FFFFFF" stroke="#777777" stroke-width="1.5"/>
<path d="M1452.1,384 V366 Q1452.1,360 1458.1,360 H1746.8 Q1752.8,360 1752.8,366 V384 Z" fill="#E4E4E4" stroke="#777777" stroke-width="1.5"/>
<text x="1462.1" y="377.0" font-size="14" font-weight="bold" fill="#222222" text-anchor="start" font-family="Consolas, Menlo, 'Courier New', monospace">fines</text>
<text x="1462.1" y="401.0" font-size="13" font-weight="bold" fill="#222222" text-anchor="start" font-family="Consolas, Menlo, 'Courier New', monospace">fine_id</text>
<line x1="1462.1" y1="404.0" x2="1515.3" y2="404.0" stroke="#222222" stroke-width="1.2"/>
<text x="1608.5" y="401.0" font-size="12" font-weight="normal" fill="#555555" text-anchor="start" font-family="Consolas, Menlo, 'Courier New', monospace">integer</text>
<path d="M1685.8,394.6 H1694.8 V399.6 H1693.1 V397.4 H1691.5 V399.0 H1689.8999999999999 V397.4 H1685.8 Z" fill="#E3B32B" stroke="#8C6D00" stroke-width="0.8"/>
<circle cx="1682.8" cy="396.0" r="4.2" fill="#E3B32B" stroke="#8C6D00" stroke-width="0.8"/>
<circle cx="1682.2" cy="396.0" r="1.4" fill="#FFFFFF"/>
<rect x="1453.1" y="408" width="298.70000000000005" height="24" fill="#FCEDCC"/>
<rect x="1453.1" y="408" width="5" height="24" fill="#C98500"/>
<line x1="1452.1" y1="408" x2="1752.8" y2="408" stroke="#DDDDDD" stroke-width="1"/>
<text x="1462.1" y="425.0" font-size="13" font-weight="normal" fill="#222222" text-anchor="start" font-family="Consolas, Menlo, 'Courier New', monospace">checkout_id</text>
<text x="1608.5" y="425.0" font-size="12" font-weight="normal" fill="#555555" text-anchor="start" font-family="Consolas, Menlo, 'Courier New', monospace">integer</text>
<g transform="rotate(-40 1706.8 420.0)" fill="none" stroke="#2E8B57" stroke-width="1.8"><rect x="1698.8" y="417.0" width="9.5" height="6" rx="3"/><rect x="1705.3" y="417.0" width="9.5" height="6" rx="3"/></g>
<text x="1729.8" y="424.0" font-size="11" font-weight="bold" fill="#555555" text-anchor="middle">UQ</text>
<rect x="1453.1" y="432" width="298.70000000000005" height="24" fill="#D3EFE6"/>
<rect x="1453.1" y="432" width="5" height="24" fill="#009E73"/>
<line x1="1452.1" y1="432" x2="1752.8" y2="432" stroke="#DDDDDD" stroke-width="1"/>
<text x="1462.1" y="449.0" font-size="13" font-weight="normal" fill="#222222" text-anchor="start" font-family="Consolas, Menlo, 'Courier New', monospace">waived_by_staff_id</text>
<text x="1608.5" y="449.0" font-size="12" font-weight="normal" fill="#555555" text-anchor="start" font-family="Consolas, Menlo, 'Courier New', monospace">integer</text>
<g transform="rotate(-40 1706.8 444.0)" fill="none" stroke="#2E8B57" stroke-width="1.8"><rect x="1698.8" y="441.0" width="9.5" height="6" rx="3"/><rect x="1705.3" y="441.0" width="9.5" height="6" rx="3"/></g>
<line x1="1452.1" y1="456" x2="1752.8" y2="456" stroke="#DDDDDD" stroke-width="1"/>
<text x="1462.1" y="473.0" font-size="12" font-weight="normal" fill="#555555" text-anchor="start" font-style="italic">+ 6 more columns</text>
<rect x="1004.0" y="176" width="176.70000000000002" height="72" rx="6" fill="#FFFFFF" stroke="#777777" stroke-width="1.5"/>
<path d="M1004.0,200 V182 Q1004.0,176 1010.0,176 H1174.7 Q1180.7,176 1180.7,182 V200 Z" fill="#E4E4E4" stroke="#777777" stroke-width="1.5"/>
<text x="1014.0" y="193.0" font-size="14" font-weight="bold" fill="#222222" text-anchor="start" font-family="Consolas, Menlo, 'Courier New', monospace">genres</text>
<text x="1014.0" y="217.0" font-size="13" font-weight="bold" fill="#222222" text-anchor="start" font-family="Consolas, Menlo, 'Courier New', monospace">genre_id</text>
<line x1="1014.0" y1="220.0" x2="1074.8" y2="220.0" stroke="#222222" stroke-width="1.2"/>
<text x="1082.4" y="217.0" font-size="12" font-weight="normal" fill="#555555" text-anchor="start" font-family="Consolas, Menlo, 'Courier New', monospace">integer</text>
<path d="M1159.7,210.6 H1168.7 V215.6 H1167.0 V213.4 H1165.4 V215.0 H1163.8 V213.4 H1159.7 Z" fill="#E3B32B" stroke="#8C6D00" stroke-width="0.8"/>
<circle cx="1156.7" cy="212.0" r="4.2" fill="#E3B32B" stroke="#8C6D00" stroke-width="0.8"/>
<circle cx="1156.1000000000001" cy="212.0" r="1.4" fill="#FFFFFF"/>
<line x1="1004.0" y1="224" x2="1180.7" y2="224" stroke="#DDDDDD" stroke-width="1"/>
<text x="1014.0" y="241.0" font-size="12" font-weight="normal" fill="#555555" text-anchor="start" font-style="italic">+ 1 more column</text>
<rect x="30" y="236" width="261.6" height="48" rx="6" fill="#FFFFFF" stroke="#777777" stroke-width="1.5"/>
<path d="M30,260 V242 Q30,236 36,236 H285.6 Q291.6,236 291.6,242 V260 Z" fill="#E4E4E4" stroke="#777777" stroke-width="1.5"/>
<text x="40" y="253.0" font-size="14" font-weight="bold" fill="#222222" text-anchor="start" font-family="Consolas, Menlo, 'Courier New', monospace">legacy_checkouts</text>
<line x1="30" y1="260" x2="291.6" y2="260" stroke="#DDDDDD" stroke-width="1"/>
<text x="40" y="277.0" font-size="12" font-weight="normal" fill="#555555" text-anchor="start" font-style="italic">+ 6 more columns</text>
<rect x="1452.1" y="680" width="184.5" height="72" rx="6" fill="#FFFFFF" stroke="#777777" stroke-width="1.5"/>
<path d="M1452.1,704 V686 Q1452.1,680 1458.1,680 H1630.6 Q1636.6,680 1636.6,686 V704 Z" fill="#E4E4E4" stroke="#777777" stroke-width="1.5"/>
<text x="1462.1" y="697.0" font-size="14" font-weight="bold" fill="#222222" text-anchor="start" font-family="Consolas, Menlo, 'Courier New', monospace">patrons</text>
<text x="1462.1" y="721.0" font-size="13" font-weight="bold" fill="#222222" text-anchor="start" font-family="Consolas, Menlo, 'Courier New', monospace">patron_id</text>
<line x1="1462.1" y1="724.0" x2="1530.5" y2="724.0" stroke="#222222" stroke-width="1.2"/>
<text x="1538.3" y="721.0" font-size="12" font-weight="normal" fill="#555555" text-anchor="start" font-family="Consolas, Menlo, 'Courier New', monospace">integer</text>
<path d="M1615.6,714.6 H1624.6 V719.6 H1622.8999999999999 V717.4 H1621.3 V719.0 H1619.6999999999998 V717.4 H1615.6 Z" fill="#E3B32B" stroke="#8C6D00" stroke-width="0.8"/>
<circle cx="1612.6" cy="716.0" r="4.2" fill="#E3B32B" stroke="#8C6D00" stroke-width="0.8"/>
<circle cx="1612.0" cy="716.0" r="1.4" fill="#FFFFFF"/>
<line x1="1452.1" y1="728" x2="1636.6" y2="728" stroke="#DDDDDD" stroke-width="1"/>
<text x="1462.1" y="745.0" font-size="12" font-weight="normal" fill="#555555" text-anchor="start" font-style="italic">+ 10 more columns</text>
<rect x="30" y="64" width="207.9" height="72" rx="6" fill="#FFFFFF" stroke="#777777" stroke-width="1.5"/>
<path d="M30,88 V70 Q30,64 36,64 H231.9 Q237.9,64 237.9,70 V88 Z" fill="#E4E4E4" stroke="#777777" stroke-width="1.5"/>
<text x="40" y="81.0" font-size="14" font-weight="bold" fill="#222222" text-anchor="start" font-family="Consolas, Menlo, 'Courier New', monospace">publishers</text>
<text x="40" y="105.0" font-size="13" font-weight="bold" fill="#222222" text-anchor="start" font-family="Consolas, Menlo, 'Courier New', monospace">publisher_id</text>
<line x1="40" y1="108.0" x2="131.2" y2="108.0" stroke="#222222" stroke-width="1.2"/>
<text x="139.6" y="105.0" font-size="12" font-weight="normal" fill="#555555" text-anchor="start" font-family="Consolas, Menlo, 'Courier New', monospace">integer</text>
<path d="M216.9,98.6 H225.9 V103.6 H224.20000000000002 V101.4 H222.6 V103.0 H221.0 V101.4 H216.9 Z" fill="#E3B32B" stroke="#8C6D00" stroke-width="0.8"/>
<circle cx="213.9" cy="100.0" r="4.2" fill="#E3B32B" stroke="#8C6D00" stroke-width="0.8"/>
<circle cx="213.3" cy="100.0" r="1.4" fill="#FFFFFF"/>
<line x1="30" y1="112" x2="237.9" y2="112" stroke="#DDDDDD" stroke-width="1"/>
<text x="40" y="129.0" font-size="12" font-weight="normal" fill="#555555" text-anchor="start" font-style="italic">+ 1 more column</text>
<rect x="1004.0" y="692" width="284.5" height="120" rx="6" fill="#FFFFFF" stroke="#777777" stroke-width="1.5"/>
<path d="M1004.0,716 V698 Q1004.0,692 1010.0,692 H1282.5 Q1288.5,692 1288.5,698 V716 Z" fill="#E4E4E4" stroke="#777777" stroke-width="1.5"/>
<text x="1014.0" y="709.0" font-size="14" font-weight="bold" fill="#222222" text-anchor="start" font-family="Consolas, Menlo, 'Courier New', monospace">room_reservations</text>
<text x="1014.0" y="733.0" font-size="13" font-weight="bold" fill="#222222" text-anchor="start" font-family="Consolas, Menlo, 'Courier New', monospace">reservation_id</text>
<line x1="1014.0" y1="736.0" x2="1120.4" y2="736.0" stroke="#222222" stroke-width="1.2"/>
<text x="1170.2" y="733.0" font-size="12" font-weight="normal" fill="#555555" text-anchor="start" font-family="Consolas, Menlo, 'Courier New', monospace">integer</text>
<path d="M1247.5,726.6 H1256.5 V731.6 H1254.8 V729.4 H1253.2 V731.0 H1251.6 V729.4 H1247.5 Z" fill="#E3B32B" stroke="#8C6D00" stroke-width="0.8"/>
<circle cx="1244.5" cy="728.0" r="4.2" fill="#E3B32B" stroke="#8C6D00" stroke-width="0.8"/>
<circle cx="1243.9" cy="728.0" r="1.4" fill="#FFFFFF"/>
<rect x="1005.0" y="740" width="282.5" height="24" fill="#DDEEF8"/>
<rect x="1005.0" y="740" width="5" height="24" fill="#3A8FC7"/>
<line x1="1004.0" y1="740" x2="1288.5" y2="740" stroke="#DDDDDD" stroke-width="1"/>
<text x="1014.0" y="757.0" font-size="13" font-weight="normal" fill="#222222" text-anchor="start" font-family="Consolas, Menlo, 'Courier New', monospace">room_id</text>
<text x="1170.2" y="757.0" font-size="12" font-weight="normal" fill="#555555" text-anchor="start" font-family="Consolas, Menlo, 'Courier New', monospace">integer</text>
<g transform="rotate(-40 1268.5 752.0)" fill="none" stroke="#2E8B57" stroke-width="1.8"><rect x="1260.5" y="749.0" width="9.5" height="6" rx="3"/><rect x="1267.0" y="749.0" width="9.5" height="6" rx="3"/></g>
<rect x="1005.0" y="764" width="282.5" height="24" fill="#F5E1EC"/>
<rect x="1005.0" y="764" width="5" height="24" fill="#B0558A"/>
<line x1="1004.0" y1="764" x2="1288.5" y2="764" stroke="#DDDDDD" stroke-width="1"/>
<text x="1014.0" y="781.0" font-size="13" font-weight="normal" fill="#222222" text-anchor="start" font-family="Consolas, Menlo, 'Courier New', monospace">patron_id</text>
<text x="1170.2" y="781.0" font-size="12" font-weight="normal" fill="#555555" text-anchor="start" font-family="Consolas, Menlo, 'Courier New', monospace">integer</text>
<g transform="rotate(-40 1268.5 776.0)" fill="none" stroke="#2E8B57" stroke-width="1.8"><rect x="1260.5" y="773.0" width="9.5" height="6" rx="3"/><rect x="1267.0" y="773.0" width="9.5" height="6" rx="3"/></g>
<line x1="1004.0" y1="788" x2="1288.5" y2="788" stroke="#DDDDDD" stroke-width="1"/>
<text x="1014.0" y="805.0" font-size="12" font-weight="normal" fill="#555555" text-anchor="start" font-style="italic">+ 4 more columns</text>
<rect x="1004.0" y="852" width="319.1" height="96" rx="6" fill="#FFFFFF" stroke="#777777" stroke-width="1.5"/>
<path d="M1004.0,876 V858 Q1004.0,852 1010.0,852 H1317.1 Q1323.1,852 1323.1,858 V876 Z" fill="#E4E4E4" stroke="#777777" stroke-width="1.5"/>
<text x="1014.0" y="869.0" font-size="14" font-weight="bold" fill="#222222" text-anchor="start" font-family="Consolas, Menlo, 'Courier New', monospace">signup_submissions</text>
<text x="1014.0" y="893.0" font-size="13" font-weight="bold" fill="#222222" text-anchor="start" font-family="Consolas, Menlo, 'Courier New', monospace">submission_id</text>
<line x1="1014.0" y1="896.0" x2="1112.8" y2="896.0" stroke="#222222" stroke-width="1.2"/>
<text x="1178.8" y="893.0" font-size="12" font-weight="normal" fill="#555555" text-anchor="start" font-family="Consolas, Menlo, 'Courier New', monospace">integer</text>
<path d="M1256.1,886.6 H1265.1 V891.6 H1263.3999999999999 V889.4 H1261.8 V891.0 H1260.1999999999998 V889.4 H1256.1 Z" fill="#E3B32B" stroke="#8C6D00" stroke-width="0.8"/>
<circle cx="1253.1" cy="888.0" r="4.2" fill="#E3B32B" stroke="#8C6D00" stroke-width="0.8"/>
<circle cx="1252.5" cy="888.0" r="1.4" fill="#FFFFFF"/>
<rect x="1005.0" y="900" width="317.1" height="24" fill="#F7F0C8"/>
<rect x="1005.0" y="900" width="5" height="24" fill="#A88A00"/>
<line x1="1004.0" y1="900" x2="1323.1" y2="900" stroke="#DDDDDD" stroke-width="1"/>
<text x="1014.0" y="917.0" font-size="13" font-weight="normal" fill="#222222" text-anchor="start" font-family="Consolas, Menlo, 'Courier New', monospace">patron_id</text>
<text x="1178.8" y="917.0" font-size="12" font-weight="normal" fill="#555555" text-anchor="start" font-family="Consolas, Menlo, 'Courier New', monospace">integer</text>
<g transform="rotate(-40 1277.1 912.0)" fill="none" stroke="#2E8B57" stroke-width="1.8"><rect x="1269.1" y="909.0" width="9.5" height="6" rx="3"/><rect x="1275.6" y="909.0" width="9.5" height="6" rx="3"/></g>
<text x="1300.1" y="916.0" font-size="11" font-weight="bold" fill="#555555" text-anchor="middle">UQ</text>
<line x1="1004.0" y1="924" x2="1323.1" y2="924" stroke="#DDDDDD" stroke-width="1"/>
<text x="1014.0" y="941.0" font-size="12" font-weight="normal" fill="#555555" text-anchor="start" font-style="italic">+ 6 more columns</text>
<rect x="1452.1" y="248" width="176.70000000000002" height="72" rx="6" fill="#FFFFFF" stroke="#777777" stroke-width="1.5"/>
<path d="M1452.1,272 V254 Q1452.1,248 1458.1,248 H1622.8 Q1628.8,248 1628.8,254 V272 Z" fill="#E4E4E4" stroke="#777777" stroke-width="1.5"/>
<text x="1462.1" y="265.0" font-size="14" font-weight="bold" fill="#222222" text-anchor="start" font-family="Consolas, Menlo, 'Courier New', monospace">staff</text>
<text x="1462.1" y="289.0" font-size="13" font-weight="bold" fill="#222222" text-anchor="start" font-family="Consolas, Menlo, 'Courier New', monospace">staff_id</text>
<line x1="1462.1" y1="292.0" x2="1522.8999999999999" y2="292.0" stroke="#222222" stroke-width="1.2"/>
<text x="1530.5" y="289.0" font-size="12" font-weight="normal" fill="#555555" text-anchor="start" font-family="Consolas, Menlo, 'Courier New', monospace">integer</text>
<path d="M1607.8,282.6 H1616.8 V287.6 H1615.1 V285.4 H1613.5 V287.0 H1611.8999999999999 V285.4 H1607.8 Z" fill="#E3B32B" stroke="#8C6D00" stroke-width="0.8"/>
<circle cx="1604.8" cy="284.0" r="4.2" fill="#E3B32B" stroke="#8C6D00" stroke-width="0.8"/>
<circle cx="1604.2" cy="284.0" r="1.4" fill="#FFFFFF"/>
<line x1="1452.1" y1="296" x2="1628.8" y2="296" stroke="#DDDDDD" stroke-width="1"/>
<text x="1462.1" y="313.0" font-size="12" font-weight="normal" fill="#555555" text-anchor="start" font-style="italic">+ 4 more columns</text>
<rect x="669.5" y="448" width="212.9" height="72" rx="6" fill="#FFFFFF" stroke="#777777" stroke-width="1.5"/>
<path d="M669.5,472 V454 Q669.5,448 675.5,448 H876.4 Q882.4,448 882.4,454 V472 Z" fill="#E4E4E4" stroke="#777777" stroke-width="1.5"/>
<text x="679.5" y="465.0" font-size="14" font-weight="bold" fill="#222222" text-anchor="start" font-family="Consolas, Menlo, 'Courier New', monospace">study_rooms</text>
<text x="679.5" y="489.0" font-size="13" font-weight="bold" fill="#222222" text-anchor="start" font-family="Consolas, Menlo, 'Courier New', monospace">room_id</text>
<line x1="679.5" y1="492.0" x2="732.7" y2="492.0" stroke="#222222" stroke-width="1.2"/>
<text x="784.1" y="489.0" font-size="12" font-weight="normal" fill="#555555" text-anchor="start" font-family="Consolas, Menlo, 'Courier New', monospace">integer</text>
<path d="M861.4000000000001,482.6 H870.4000000000001 V487.6 H868.7 V485.4 H867.1000000000001 V487.0 H865.5000000000001 V485.4 H861.4000000000001 Z" fill="#E3B32B" stroke="#8C6D00" stroke-width="0.8"/>
<circle cx="858.4000000000001" cy="484.0" r="4.2" fill="#E3B32B" stroke="#8C6D00" stroke-width="0.8"/>
<circle cx="857.8000000000001" cy="484.0" r="1.4" fill="#FFFFFF"/>
<line x1="669.5" y1="496" x2="882.4" y2="496" stroke="#DDDDDD" stroke-width="1"/>
<text x="679.5" y="513.0" font-size="12" font-weight="normal" fill="#555555" text-anchor="start" font-style="italic">+ 3 more columns</text>
</svg>
