<svg xmlns="http://www.w3.org/2000/svg" viewBox="0 0 1161 390" width="1741.5" height="585" role="img" aria-labelledby="title desc" font-family="Helvetica, Arial, sans-serif">
<title id="title">worldbank ER diagram (keys only)</title>
<desc id="desc">Entity relationship diagram of the worldbank database (keys only), in crow's foot notation. countries.income_group_id references income_groups.income_group_id. countries.lending_type_id references lending_types.lending_type_id. countries.region_id references regions.region_id. indicators.country_id references countries.id.</desc>
<defs><marker id="arrow-009E73" viewBox="0 0 10 10" refX="9" refY="5" markerWidth="7" markerHeight="7" orient="auto-start-reverse"><path d="M0,0 L10,5 L0,10 z" fill="#009E73"/></marker><marker id="arrow-777777" viewBox="0 0 10 10" refX="9" refY="5" markerWidth="7" markerHeight="7" orient="auto-start-reverse"><path d="M0,0 L10,5 L0,10 z" fill="#777777"/></marker><marker id="arrow-C98500" viewBox="0 0 10 10" refX="9" refY="5" markerWidth="7" markerHeight="7" orient="auto-start-reverse"><path d="M0,0 L10,5 L0,10 z" fill="#C98500"/></marker><marker id="arrow-D55E00" viewBox="0 0 10 10" refX="9" refY="5" markerWidth="7" markerHeight="7" orient="auto-start-reverse"><path d="M0,0 L10,5 L0,10 z" fill="#D55E00"/></marker></defs>
<rect width="100%" height="100%" fill="#FFFFFF"/>
<text x="30" y="36" font-size="20" font-weight="bold" fill="#222222" text-anchor="start">worldbank: World Bank development indicators by country and year</text>
<path d="M578.5,148.0 H602.5 C620.5,148.0 620.5,212.0 638.5,212.0 H662.5" fill="none" stroke="#0072B2" stroke-width="2" stroke-opacity="0.9"/>
<path d="M592.5,148.0 L578.5,140.0 M592.5,148.0 L578.5,156.0" fill="none" stroke="#0072B2" stroke-width="2"/>
<circle cx="599.5" cy="148.0" r="4.5" fill="#FFFFFF" stroke="#0072B2" stroke-width="2"/>
<line x1="654.5" y1="205.0" x2="654.5" y2="219.0" stroke="#0072B2" stroke-width="2"/>
<circle cx="642.5" cy="212.0" r="4.5" fill="#FFFFFF" stroke="#0072B2" stroke-width="2"/>
<path d="M578.5,172.0 H602.5 C608.5,172.0 608.5,324.0 638.5,324.0 H662.5" fill="none" stroke="#C98500" stroke-width="2" stroke-opacity="0.9"/>
<path d="M592.5,172.0 L578.5,164.0 M592.5,172.0 L578.5,180.0" fill="none" stroke="#C98500" stroke-width="2"/>
<circle cx="599.5" cy="172.0" r="4.5" fill="#FFFFFF" stroke="#C98500" stroke-width="2"/>
<line x1="654.5" y1="317.0" x2="654.5" y2="331.0" stroke="#C98500" stroke-width="2"/>
<circle cx="642.5" cy="324.0" r="4.5" fill="#FFFFFF" stroke="#C98500" stroke-width="2"/>
<path d="M578.5,124.0 H602.5 C632.5,124.0 632.5,100.0 638.5,100.0 H662.5" fill="none" stroke="#009E73" stroke-width="2" stroke-opacity="0.9"/>
<path d="M592.5,124.0 L578.5,116.0 M592.5,124.0 L578.5,132.0" fill="none" stroke="#009E73" stroke-width="2"/>
<circle cx="599.5" cy="124.0" r="4.5" fill="#FFFFFF" stroke="#009E73" stroke-width="2"/>
<line x1="654.5" y1="93.0" x2="654.5" y2="107.0" stroke="#009E73" stroke-width="2"/>
<circle cx="642.5" cy="100.0" r="4.5" fill="#FFFFFF" stroke="#009E73" stroke-width="2"/>
<path d="M254.3,100.0 H278.3 C287.3,100.0 287.3,100.0 296.3,100.0 H320.3" fill="none" stroke="#B0558A" stroke-width="2" stroke-opacity="0.9"/>
<path d="M268.3,100.0 L254.3,92.0 M268.3,100.0 L254.3,108.0" fill="none" stroke="#B0558A" stroke-width="2"/>
<circle cx="275.3" cy="100.0" r="4.5" fill="#FFFFFF" stroke="#B0558A" stroke-width="2"/>
<line x1="312.3" y1="93.0" x2="312.3" y2="107.0" stroke="#B0558A" stroke-width="2"/>
<line x1="306.3" y1="93.0" x2="306.3" y2="107.0" stroke="#B0558A" stroke-width="2"/>
<rect x="320.3" y="64" width="258.2" height="144" rx="6" fill="#FFFFFF" stroke="#777777" stroke-width="1.5"/>
<path d="M320.3,88 V70 Q320.3,64 326.3,64 H572.5 Q578.5,64 578.5,70 V88 Z" fill="#E4E4E4" stroke="#777777" stroke-width="1.5"/>
<text x="330.3" y="81.0" font-size="14" font-weight="bold" fill="#222222" text-anchor="start" font-family="Consolas, Menlo, 'Courier New', monospace">countries</text>
<text x="330.3" y="105.0" font-size="13" font-weight="bold" fill="#222222" text-anchor="start" font-family="Consolas, Menlo, 'Courier New', monospace">id</text>
<line x1="330.3" y1="108.0" x2="345.5" y2="108.0" stroke="#222222" stroke-width="1.2"/>
<text x="453.3" y="105.0" font-size="12" font-weight="normal" fill="#555555" text-anchor="start" font-family="Consolas, Menlo, 'Courier New', monospace">integer</text>
<path d="M537.5,98.6 H546.5 V103.6 H544.8 V101.4 H543.2 V103.0 H541.6 V101.4 H537.5 Z" fill="#E3B32B" stroke="#8C6D00" stroke-width="0.8"/>
<circle cx="534.5" cy="100.0" r="4.2" fill="#E3B32B" stroke="#8C6D00" stroke-width="0.8"/>
<circle cx="533.9" cy="100.0" r="1.4" fill="#FFFFFF"/>
<rect x="321.3" y="112" width="256.2" height="24" fill="#D3EFE6"/>
<rect x="321.3" y="112" width="5" height="24" fill="#009E73"/>
<line x1="320.3" y1="112" x2="578.5" y2="112" stroke="#DDDDDD" stroke-width="1"/>
<text x="330.3" y="129.0" font-size="13" font-weight="normal" fill="#222222" text-anchor="start" font-family="Consolas, Menlo, 'Courier New', monospace">region_id</text>
<text x="453.3" y="129.0" font-size="12" font-weight="normal" fill="#555555" text-anchor="start" font-family="Consolas, Menlo, 'Courier New', monospace">smallint</text>
<g transform="rotate(-40 558.5 124.0)" fill="none" stroke="#2E8B57" stroke-width="1.8"><rect x="550.5" y="121.0" width="9.5" height="6" rx="3"/><rect x="557.0" y="121.0" width="9.5" height="6" rx="3"/></g>
<rect x="321.3" y="136" width="256.2" height="24" fill="#DCEAF5"/>
<rect x="321.3" y="136" width="5" height="24" fill="#0072B2"/>
<line x1="320.3" y1="136" x2="578.5" y2="136" stroke="#DDDDDD" stroke-width="1"/>
<text x="330.3" y="153.0" font-size="13" font-weight="normal" fill="#222222" text-anchor="start" font-family="Consolas, Menlo, 'Courier New', monospace">income_group_id</text>
<text x="453.3" y="153.0" font-size="12" font-weight="normal" fill="#555555" text-anchor="start" font-family="Consolas, Menlo, 'Courier New', monospace">smallint</text>
<g transform="rotate(-40 558.5 148.0)" fill="none" stroke="#2E8B57" stroke-width="1.8"><rect x="550.5" y="145.0" width="9.5" height="6" rx="3"/><rect x="557.0" y="145.0" width="9.5" height="6" rx="3"/></g>
<rect x="321.3" y="160" width="256.2" height="24" fill="#FCEDCC"/>
<rect x="321.3" y="160" width="5" height="24" fill="#C98500"/>
<line x1="320.3" y1="160" x2="578.5" y2="160" stroke="#DDDDDD" stroke-width="1"/>
<text x="330.3" y="177.0" font-size="13" font-weight="normal" fill="#222222" text-anchor="start" font-family="Consolas, Menlo, 'Courier New', monospace">lending_type_id</text>
<text x="453.3" y="177.0" font-size="12" font-weight="normal" fill="#555555" text-anchor="start" font-family="Consolas, Menlo, 'Courier New', monospace">smallint</text>
<g transform="rotate(-40 558.5 172.0)" fill="none" stroke="#2E8B57" stroke-width="1.8"><rect x="550.5" y="169.0" width="9.5" height="6" rx="3"/><rect x="557.0" y="169.0" width="9.5" height="6" rx="3"/></g>
<line x1="320.3" y1="184" x2="578.5" y2="184" stroke="#DDDDDD" stroke-width="1"/>
<text x="330.3" y="201.0" font-size="12" font-weight="normal" fill="#555555" text-anchor="start" font-style="italic">+ 7 more columns</text>
<rect x="662.5" y="176" width="238.2" height="72" rx="6" fill="#FFFFFF" stroke="#777777" stroke-width="1.5"/>
<path d="M662.5,200 V182 Q662.5,176 668.5,176 H894.7 Q900.7,176 900.7,182 V200 Z" fill="#E4E4E4" stroke="#777777" stroke-width="1.5"/>
<text x="672.5" y="193.0" font-size="14" font-weight="bold" fill="#222222" text-anchor="start" font-family="Consolas, Menlo, 'Courier New', monospace">income_groups</text>
<text x="672.5" y="217.0" font-size="13" font-weight="bold" fill="#222222" text-anchor="start" font-family="Consolas, Menlo, 'Courier New', monospace">income_group_id</text>
<line x1="672.5" y1="220.0" x2="786.5" y2="220.0" stroke="#222222" stroke-width="1.2"/>
<text x="795.5" y="217.0" font-size="12" font-weight="normal" fill="#555555" text-anchor="start" font-family="Consolas, Menlo, 'Courier New', monospace">smallint</text>
<path d="M879.7,210.6 H888.7 V215.6 H887.0 V213.4 H885.4000000000001 V215.0 H883.8000000000001 V213.4 H879.7 Z" fill="#E3B32B" stroke="#8C6D00" stroke-width="0.8"/>
<circle cx="876.7" cy="212.0" r="4.2" fill="#E3B32B" stroke="#8C6D00" stroke-width="0.8"/>
<circle cx="876.1" cy="212.0" r="1.4" fill="#FFFFFF"/>
<line x1="662.5" y1="224" x2="900.7" y2="224" stroke="#DDDDDD" stroke-width="1"/>
<text x="672.5" y="241.0" font-size="12" font-weight="normal" fill="#555555" text-anchor="start" font-style="italic">+ 1 more column</text>
<rect x="30" y="64" width="224.3" height="96" rx="6" fill="#FFFFFF" stroke="#777777" stroke-width="1.5"/>
<path d="M30,88 V70 Q30,64 36,64 H248.3 Q254.3,64 254.3,70 V88 Z" fill="#E4E4E4" stroke="#777777" stroke-width="1.5"/>
<text x="40" y="81.0" font-size="14" font-weight="bold" fill="#222222" text-anchor="start" font-family="Consolas, Menlo, 'Courier New', monospace">indicators</text>
<rect x="31" y="88" width="222.3" height="24" fill="#F5E1EC"/>
<rect x="31" y="88" width="5" height="24" fill="#B0558A"/>
<text x="40" y="105.0" font-size="13" font-weight="bold" fill="#222222" text-anchor="start" font-family="Consolas, Menlo, 'Courier New', monospace">country_id</text>
<line x1="40" y1="108.0" x2="116.0" y2="108.0" stroke="#222222" stroke-width="1.2"/>
<text x="136.0" y="105.0" font-size="12" font-weight="normal" fill="#555555" text-anchor="start" font-family="Consolas, Menlo, 'Courier New', monospace">integer</text>
<path d="M213.3,98.6 H222.3 V103.6 H220.60000000000002 V101.4 H219.0 V103.0 H217.4 V101.4 H213.3 Z" fill="#E3B32B" stroke="#8C6D00" stroke-width="0.8"/>
<circle cx="210.3" cy="100.0" r="4.2" fill="#E3B32B" stroke="#8C6D00" stroke-width="0.8"/>
<circle cx="209.70000000000002" cy="100.0" r="1.4" fill="#FFFFFF"/>
<g transform="rotate(-40 234.3 100.0)" fill="none" stroke="#2E8B57" stroke-width="1.8"><rect x="226.3" y="97.0" width="9.5" height="6" rx="3"/><rect x="232.8" y="97.0" width="9.5" height="6" rx="3"/></g>
<line x1="30" y1="112" x2="254.3" y2="112" stroke="#DDDDDD" stroke-width="1"/>
<text x="40" y="129.0" font-size="13" font-weight="bold" fill="#222222" text-anchor="start" font-family="Consolas, Menlo, 'Courier New', monospace">year</text>
<line x1="40" y1="132.0" x2="70.4" y2="132.0" stroke="#222222" stroke-width="1.2"/>
<text x="136.0" y="129.0" font-size="12" font-weight="normal" fill="#555555" text-anchor="start" font-family="Consolas, Menlo, 'Courier New', monospace">integer</text>
<path d="M213.3,122.6 H222.3 V127.6 H220.60000000000002 V125.4 H219.0 V127.0 H217.4 V125.4 H213.3 Z" fill="#E3B32B" stroke="#8C6D00" stroke-width="0.8"/>
<circle cx="210.3" cy="124.0" r="4.2" fill="#E3B32B" stroke="#8C6D00" stroke-width="0.8"/>
<circle cx="209.70000000000002" cy="124.0" r="1.4" fill="#FFFFFF"/>
<line x1="30" y1="136" x2="254.3" y2="136" stroke="#DDDDDD" stroke-width="1"/>
<text x="40" y="153.0" font-size="12" font-weight="normal" fill="#555555" text-anchor="start" font-style="italic">+ 10 more columns</text>
<rect x="662.5" y="288" width="238.2" height="72" rx="6" fill="#FFFFFF" stroke="#777777" stroke-width="1.5"/>
<path d="M662.5,312 V294 Q662.5,288 668.5,288 H894.7 Q900.7,288 900.7,294 V312 Z" fill="#E4E4E4" stroke="#777777" stroke-width="1.5"/>
<text x="672.5" y="305.0" font-size="14" font-weight="bold" fill="#222222" text-anchor="start" font-family="Consolas, Menlo, 'Courier New', monospace">lending_types</text>
<text x="672.5" y="329.0" font-size="13" font-weight="bold" fill="#222222" text-anchor="start" font-family="Consolas, Menlo, 'Courier New', monospace">lending_type_id</text>
<line x1="672.5" y1="332.0" x2="786.5" y2="332.0" stroke="#222222" stroke-width="1.2"/>
<text x="795.5" y="329.0" font-size="12" font-weight="normal" fill="#555555" text-anchor="start" font-family="Consolas, Menlo, 'Courier New', monospace">smallint</text>
<path d="M879.7,322.6 H888.7 V327.6 H887.0 V325.4 H885.4000000000001 V327.0 H883.8000000000001 V325.4 H879.7 Z" fill="#E3B32B" stroke="#8C6D00" stroke-width="0.8"/>
<circle cx="876.7" cy="324.0" r="4.2" fill="#E3B32B" stroke="#8C6D00" stroke-width="0.8"/>
<circle cx="876.1" cy="324.0" r="1.4" fill="#FFFFFF"/>
<line x1="662.5" y1="336" x2="900.7" y2="336" stroke="#DDDDDD" stroke-width="1"/>
<text x="672.5" y="353.0" font-size="12" font-weight="normal" fill="#555555" text-anchor="start" font-style="italic">+ 1 more column</text>
<rect x="662.5" y="64" width="191.4" height="72" rx="6" fill="#FFFFFF" stroke="#777777" stroke-width="1.5"/>
<path d="M662.5,88 V70 Q662.5,64 668.5,64 H847.9 Q853.9,64 853.9,70 V88 Z" fill="#E4E4E4" stroke="#777777" stroke-width="1.5"/>
<text x="672.5" y="81.0" font-size="14" font-weight="bold" fill="#222222" text-anchor="start" font-family="Consolas, Menlo, 'Courier New', monospace">regions</text>
<text x="672.5" y="105.0" font-size="13" font-weight="bold" fill="#222222" text-anchor="start" font-family="Consolas, Menlo, 'Courier New', monospace">region_id</text>
<line x1="672.5" y1="108.0" x2="740.9" y2="108.0" stroke="#222222" stroke-width="1.2"/>
<text x="748.7" y="105.0" font-size="12" font-weight="normal" fill="#555555" text-anchor="start" font-family="Consolas, Menlo, 'Courier New', monospace">smallint</text>
<path d="M832.9000000000001,98.6 H841.9000000000001 V103.6 H840.2 V101.4 H838.6000000000001 V103.0 H837.0000000000001 V101.4 H832.9000000000001 Z" fill="#E3B32B" stroke="#8C6D00" stroke-width="0.8"/>
<circle cx="829.9000000000001" cy="100.0" r="4.2" fill="#E3B32B" stroke="#8C6D00" stroke-width="0.8"/>
<circle cx="829.3000000000001" cy="100.0" r="1.4" fill="#FFFFFF"/>
<line x1="662.5" y1="112" x2="853.9" y2="112" stroke="#DDDDDD" stroke-width="1"/>
<text x="672.5" y="129.0" font-size="12" font-weight="normal" fill="#555555" text-anchor="start" font-style="italic">+ 1 more column</text>
<rect x="960.7" y="64" width="169.9" height="72" rx="6" fill="#FFFFFF" stroke="#777777" stroke-width="1.5"/>
<path d="M960.7,88 V70 Q960.7,64 966.7,64 H1124.6000000000001 Q1130.6000000000001,64 1130.6000000000001,70 V88 Z" fill="#E4E4E4" stroke="#777777" stroke-width="1.5"/>
<text x="970.7" y="81.0" font-size="14" font-weight="bold" fill="#222222" text-anchor="start" font-family="Consolas, Menlo, 'Courier New', monospace">series</text>
<text x="970.7" y="105.0" font-size="13" font-weight="bold" fill="#222222" text-anchor="start" font-family="Consolas, Menlo, 'Courier New', monospace">id</text>
<line x1="970.7" y1="108.0" x2="985.9000000000001" y2="108.0" stroke="#222222" stroke-width="1.2"/>
<text x="1032.3" y="105.0" font-size="12" font-weight="normal" fill="#555555" text-anchor="start" font-family="Consolas, Menlo, 'Courier New', monospace">integer</text>
<path d="M1109.6,98.6 H1118.6 V103.6 H1116.8999999999999 V101.4 H1115.3 V103.0 H1113.6999999999998 V101.4 H1109.6 Z" fill="#E3B32B" stroke="#8C6D00" stroke-width="0.8"/>
<circle cx="1106.6" cy="100.0" r="4.2" fill="#E3B32B" stroke="#8C6D00" stroke-width="0.8"/>
<circle cx="1106.0" cy="100.0" r="1.4" fill="#FFFFFF"/>
<line x1="960.7" y1="112" x2="1130.6000000000001" y2="112" stroke="#DDDDDD" stroke-width="1"/>
<text x="970.7" y="129.0" font-size="12" font-weight="normal" fill="#555555" text-anchor="start" font-style="italic">+ 5 more columns</text>
</svg>
