<svg xmlns="http://www.w3.org/2000/svg" viewBox="0 0 990 688" width="990" height="688" role="img" aria-labelledby="title desc" font-family="Helvetica, Arial, sans-serif">
<title id="title">Window function: the same groups, but no rows disappear</title>
<desc id="desc">The same 8 flights are partitioned by carrier. AVG(dep_delay) OVER (PARTITION BY carrier) computes each carrier's average, 6 for AA, 17.5 for DL, and 7.75 for UA, and writes it on every row of that carrier. All 8 rows remain in the result.</desc>
<defs><marker id="arrow-0072B2" viewBox="0 0 10 10" refX="9" refY="5" markerWidth="7" markerHeight="7" orient="auto-start-reverse"><path d="M0,0 L10,5 L0,10 z" fill="#0072B2"/></marker><marker id="arrow-009E73" viewBox="0 0 10 10" refX="9" refY="5" markerWidth="7" markerHeight="7" orient="auto-start-reverse"><path d="M0,0 L10,5 L0,10 z" fill="#009E73"/></marker><marker id="arrow-777777" viewBox="0 0 10 10" refX="9" refY="5" markerWidth="7" markerHeight="7" orient="auto-start-reverse"><path d="M0,0 L10,5 L0,10 z" fill="#777777"/></marker><marker id="arrow-C98500" viewBox="0 0 10 10" refX="9" refY="5" markerWidth="7" markerHeight="7" orient="auto-start-reverse"><path d="M0,0 L10,5 L0,10 z" fill="#C98500"/></marker><marker id="arrow-D55E00" viewBox="0 0 10 10" refX="9" refY="5" markerWidth="7" markerHeight="7" orient="auto-start-reverse"><path d="M0,0 L10,5 L0,10 z" fill="#D55E00"/></marker></defs>
<rect width="100%" height="100%" fill="#FFFFFF"/>
<text x="30" y="36" font-size="20" font-weight="bold" fill="#222222" text-anchor="start">Window function: the same groups, but no rows disappear</text>
<text x="30" y="60" font-size="14" font-weight="normal" fill="#555555" text-anchor="start">PARTITION BY forms the same groups as GROUP BY. The average is attached to every row instead of replacing them.</text>
<text x="30" y="110" font-size="14" font-weight="bold" fill="#222222" text-anchor="start" font-family="Consolas, Menlo, 'Courier New', monospace">flights</text>
<rect x="30" y="120" width="235" height="26" fill="#E4E4E4" stroke="#A0A0A0" stroke-width="1"/>
<text x="38" y="138.0" font-size="13" font-weight="bold" fill="#222222" text-anchor="start" font-family="Consolas, Menlo, 'Courier New', monospace">flight</text>
<text x="108" y="138.0" font-size="13" font-weight="bold" fill="#222222" text-anchor="start" font-family="Consolas, Menlo, 'Courier New', monospace">carrier</text>
<text x="183" y="138.0" font-size="13" font-weight="bold" fill="#222222" text-anchor="start" font-family="Consolas, Menlo, 'Courier New', monospace">dep_delay</text>
<rect x="30" y="146" width="235" height="26" fill="#DCEAF5" stroke="#A0A0A0" stroke-width="1"/>
<rect x="30" y="146" width="5" height="26" fill="#0072B2"/>
<text x="38" y="164.0" font-size="13" font-weight="normal" fill="#222222" text-anchor="start">f1</text>
<text x="108" y="164.0" font-size="13" font-weight="normal" fill="#222222" text-anchor="start">UA</text>
<text x="183" y="164.0" font-size="13" font-weight="normal" fill="#222222" text-anchor="start">12</text>
<rect x="30" y="172" width="235" height="26" fill="#FCEDCC" stroke="#A0A0A0" stroke-width="1"/>
<rect x="30" y="172" width="5" height="26" fill="#C98500"/>
<text x="38" y="190.0" font-size="13" font-weight="normal" fill="#222222" text-anchor="start">f2</text>
<text x="108" y="190.0" font-size="13" font-weight="normal" fill="#222222" text-anchor="start">DL</text>
<text x="183" y="190.0" font-size="13" font-weight="normal" fill="#222222" text-anchor="start">5</text>
<rect x="30" y="198" width="235" height="26" fill="#DCEAF5" stroke="#A0A0A0" stroke-width="1"/>
<rect x="30" y="198" width="5" height="26" fill="#0072B2"/>
<text x="38" y="216.0" font-size="13" font-weight="normal" fill="#222222" text-anchor="start">f3</text>
<text x="108" y="216.0" font-size="13" font-weight="normal" fill="#222222" text-anchor="start">UA</text>
<text x="183" y="216.0" font-size="13" font-weight="normal" fill="#222222" text-anchor="start">-3</text>
<rect x="30" y="224" width="235" height="26" fill="#D3EFE6" stroke="#A0A0A0" stroke-width="1"/>
<rect x="30" y="224" width="5" height="26" fill="#009E73"/>
<text x="38" y="242.0" font-size="13" font-weight="normal" fill="#222222" text-anchor="start">f4</text>
<text x="108" y="242.0" font-size="13" font-weight="normal" fill="#222222" text-anchor="start">AA</text>
<text x="183" y="242.0" font-size="13" font-weight="normal" fill="#222222" text-anchor="start">20</text>
<rect x="30" y="250" width="235" height="26" fill="#DCEAF5" stroke="#A0A0A0" stroke-width="1"/>
<rect x="30" y="250" width="5" height="26" fill="#0072B2"/>
<text x="38" y="268.0" font-size="13" font-weight="normal" fill="#222222" text-anchor="start">f5</text>
<text x="108" y="268.0" font-size="13" font-weight="normal" fill="#222222" text-anchor="start">UA</text>
<text x="183" y="268.0" font-size="13" font-weight="normal" fill="#222222" text-anchor="start">7</text>
<rect x="30" y="276" width="235" height="26" fill="#FCEDCC" stroke="#A0A0A0" stroke-width="1"/>
<rect x="30" y="276" width="5" height="26" fill="#C98500"/>
<text x="38" y="294.0" font-size="13" font-weight="normal" fill="#222222" text-anchor="start">f6</text>
<text x="108" y="294.0" font-size="13" font-weight="normal" fill="#222222" text-anchor="start">DL</text>
<text x="183" y="294.0" font-size="13" font-weight="normal" fill="#222222" text-anchor="start">30</text>
<rect x="30" y="302" width="235" height="26" fill="#D3EFE6" stroke="#A0A0A0" stroke-width="1"/>
<rect x="30" y="302" width="5" height="26" fill="#009E73"/>
<text x="38" y="320.0" font-size="13" font-weight="normal" fill="#222222" text-anchor="start">f7</text>
<text x="108" y="320.0" font-size="13" font-weight="normal" fill="#222222" text-anchor="start">AA</text>
<text x="183" y="320.0" font-size="13" font-weight="normal" fill="#222222" text-anchor="start">-8</text>
<rect x="30" y="328" width="235" height="26" fill="#DCEAF5" stroke="#A0A0A0" stroke-width="1"/>
<rect x="30" y="328" width="5" height="26" fill="#0072B2"/>
<text x="38" y="346.0" font-size="13" font-weight="normal" fill="#222222" text-anchor="start">f8</text>
<text x="108" y="346.0" font-size="13" font-weight="normal" fill="#222222" text-anchor="start">UA</text>
<text x="183" y="346.0" font-size="13" font-weight="normal" fill="#222222" text-anchor="start">15</text>
<line x1="100" y1="120" x2="100" y2="354" stroke="#A0A0A0" stroke-width="1"/>
<line x1="175" y1="120" x2="175" y2="354" stroke="#A0A0A0" stroke-width="1"/>
<rect x="30" y="120" width="235" height="234" fill="none" stroke="#777777" stroke-width="1.5"/>
<rect x="310" y="120" width="255" height="116" rx="8" fill="#F4F4F4" stroke="#A0A0A0" stroke-width="1.5"/>
<text x="320" y="140" font-size="13" font-weight="bold" fill="#555555" text-anchor="start">partition: carrier = 'AA'</text>
<rect x="320" y="148" width="235" height="26" fill="#E4E4E4" stroke="#A0A0A0" stroke-width="1"/>
<text x="328" y="166.0" font-size="13" font-weight="bold" fill="#222222" text-anchor="start" font-family="Consolas, Menlo, 'Courier New', monospace">flight</text>
<text x="398" y="166.0" font-size="13" font-weight="bold" fill="#222222" text-anchor="start" font-family="Consolas, Menlo, 'Courier New', monospace">carrier</text>
<text x="473" y="166.0" font-size="13" font-weight="bold" fill="#222222" text-anchor="start" font-family="Consolas, Menlo, 'Courier New', monospace">dep_delay</text>
<rect x="320" y="174" width="235" height="26" fill="#D3EFE6" stroke="#A0A0A0" stroke-width="1"/>
<rect x="320" y="174" width="5" height="26" fill="#009E73"/>
<text x="328" y="192.0" font-size="13" font-weight="normal" fill="#222222" text-anchor="start">f4</text>
<text x="398" y="192.0" font-size="13" font-weight="normal" fill="#222222" text-anchor="start">AA</text>
<text x="473" y="192.0" font-size="13" font-weight="normal" fill="#222222" text-anchor="start">20</text>
<rect x="320" y="200" width="235" height="26" fill="#D3EFE6" stroke="#A0A0A0" stroke-width="1"/>
<rect x="320" y="200" width="5" height="26" fill="#009E73"/>
<text x="328" y="218.0" font-size="13" font-weight="normal" fill="#222222" text-anchor="start">f7</text>
<text x="398" y="218.0" font-size="13" font-weight="normal" fill="#222222" text-anchor="start">AA</text>
<text x="473" y="218.0" font-size="13" font-weight="normal" fill="#222222" text-anchor="start">-8</text>
<line x1="390" y1="148" x2="390" y2="226" stroke="#A0A0A0" stroke-width="1"/>
<line x1="465" y1="148" x2="465" y2="226" stroke="#A0A0A0" stroke-width="1"/>
<rect x="320" y="148" width="235" height="78" fill="none" stroke="#777777" stroke-width="1.5"/>
<path d="M265,237.0 C292.5,237.0 292.5,187.0 320,187.0" fill="none" stroke="#009E73" stroke-width="1.4" stroke-opacity="0.85"/>
<circle cx="265" cy="237.0" r="3.5" fill="#009E73"/>
<circle cx="320" cy="187.0" r="3.5" fill="#009E73"/>
<path d="M265,315.0 C292.5,315.0 292.5,213.0 320,213.0" fill="none" stroke="#009E73" stroke-width="1.4" stroke-opacity="0.85"/>
<circle cx="265" cy="315.0" r="3.5" fill="#009E73"/>
<circle cx="320" cy="213.0" r="3.5" fill="#009E73"/>
<rect x="310" y="248" width="255" height="116" rx="8" fill="#F4F4F4" stroke="#A0A0A0" stroke-width="1.5"/>
<text x="320" y="268" font-size="13" font-weight="bold" fill="#555555" text-anchor="start">partition: carrier = 'DL'</text>
<rect x="320" y="276" width="235" height="26" fill="#E4E4E4" stroke="#A0A0A0" stroke-width="1"/>
<text x="328" y="294.0" font-size="13" font-weight="bold" fill="#222222" text-anchor="start" font-family="Consolas, Menlo, 'Courier New', monospace">flight</text>
<text x="398" y="294.0" font-size="13" font-weight="bold" fill="#222222" text-anchor="start" font-family="Consolas, Menlo, 'Courier New', monospace">carrier</text>
<text x="473" y="294.0" font-size="13" font-weight="bold" fill="#222222" text-anchor="start" font-family="Consolas, Menlo, 'Courier New', monospace">dep_delay</text>
<rect x="320" y="302" width="235" height="26" fill="#FCEDCC" stroke="#A0A0A0" stroke-width="1"/>
<rect x="320" y="302" width="5" height="26" fill="#C98500"/>
<text x="328" y="320.0" font-size="13" font-weight="normal" fill="#222222" text-anchor="start">f2</text>
<text x="398" y="320.0" font-size="13" font-weight="normal" fill="#222222" text-anchor="start">DL</text>
<text x="473" y="320.0" font-size="13" font-weight="normal" fill="#222222" text-anchor="start">5</text>
<rect x="320" y="328" width="235" height="26" fill="#FCEDCC" stroke="#A0A0A0" stroke-width="1"/>
<rect x="320" y="328" width="5" height="26" fill="#C98500"/>
<text x="328" y="346.0" font-size="13" font-weight="normal" fill="#222222" text-anchor="start">f6</text>
<text x="398" y="346.0" font-size="13" font-weight="normal" fill="#222222" text-anchor="start">DL</text>
<text x="473" y="346.0" font-size="13" font-weight="normal" fill="#222222" text-anchor="start">30</text>
<line x1="390" y1="276" x2="390" y2="354" stroke="#A0A0A0" stroke-width="1"/>
<line x1="465" y1="276" x2="465" y2="354" stroke="#A0A0A0" stroke-width="1"/>
<rect x="320" y="276" width="235" height="78" fill="none" stroke="#777777" stroke-width="1.5"/>
<path d="M265,185.0 C292.5,185.0 292.5,315.0 320,315.0" fill="none" stroke="#C98500" stroke-width="1.4" stroke-opacity="0.85"/>
<circle cx="265" cy="185.0" r="3.5" fill="#C98500"/>
<circle cx="320" cy="315.0" r="3.5" fill="#C98500"/>
<path d="M265,289.0 C292.5,289.0 292.5,341.0 320,341.0" fill="none" stroke="#C98500" stroke-width="1.4" stroke-opacity="0.85"/>
<circle cx="265" cy="289.0" r="3.5" fill="#C98500"/>
<circle cx="320" cy="341.0" r="3.5" fill="#C98500"/>
<rect x="310" y="376" width="255" height="168" rx="8" fill="#F4F4F4" stroke="#A0A0A0" stroke-width="1.5"/>
<text x="320" y="396" font-size="13" font-weight="bold" fill="#555555" text-anchor="start">partition: carrier = 'UA'</text>
<rect x="320" y="404" width="235" height="26" fill="#E4E4E4" stroke="#A0A0A0" stroke-width="1"/>
<text x="328" y="422.0" font-size="13" font-weight="bold" fill="#222222" text-anchor="start" font-family="Consolas, Menlo, 'Courier New', monospace">flight</text>
<text x="398" y="422.0" font-size="13" font-weight="bold" fill="#222222" text-anchor="start" font-family="Consolas, Menlo, 'Courier New', monospace">carrier</text>
<text x="473" y="422.0" font-size="13" font-weight="bold" fill="#222222" text-anchor="start" font-family="Consolas, Menlo, 'Courier New', monospace">dep_delay</text>
<rect x="320" y="430" width="235" height="26" fill="#DCEAF5" stroke="#A0A0A0" stroke-width="1"/>
<rect x="320" y="430" width="5" height="26" fill="#0072B2"/>
<text x="328" y="448.0" font-size="13" font-weight="normal" fill="#222222" text-anchor="start">f1</text>
<text x="398" y="448.0" font-size="13" font-weight="normal" fill="#222222" text-anchor="start">UA</text>
<text x="473" y="448.0" font-size="13" font-weight="normal" fill="#222222" text-anchor="start">12</text>
<rect x="320" y="456" width="235" height="26" fill="#DCEAF5" stroke="#A0A0A0" stroke-width="1"/>
<rect x="320" y="456" width="5" height="26" fill="#0072B2"/>
<text x="328" y="474.0" font-size="13" font-weight="normal" fill="#222222" text-anchor="start">f3</text>
<text x="398" y="474.0" font-size="13" font-weight="normal" fill="#222222" text-anchor="start">UA</text>
<text x="473" y="474.0" font-size="13" font-weight="normal" fill="#222222" text-anchor="start">-3</text>
<rect x="320" y="482" width="235" height="26" fill="#DCEAF5" stroke="#A0A0A0" stroke-width="1"/>
<rect x="320" y="482" width="5" height="26" fill="#0072B2"/>
<text x="328" y="500.0" font-size="13" font-weight="normal" fill="#222222" text-anchor="start">f5</text>
<text x="398" y="500.0" font-size="13" font-weight="normal" fill="#222222" text-anchor="start">UA</text>
<text x="473" y="500.0" font-size="13" font-weight="normal" fill="#222222" text-anchor="start">7</text>
<rect x="320" y="508" width="235" height="26" fill="#DCEAF5" stroke="#A0A0A0" stroke-width="1"/>
<rect x="320" y="508" width="5" height="26" fill="#0072B2"/>
<text x="328" y="526.0" font-size="13" font-weight="normal" fill="#222222" text-anchor="start">f8</text>
<text x="398" y="526.0" font-size="13" font-weight="normal" fill="#222222" text-anchor="start">UA</text>
<text x="473" y="526.0" font-size="13" font-weight="normal" fill="#222222" text-anchor="start">15</text>
<line x1="390" y1="404" x2="390" y2="534" stroke="#A0A0A0" stroke-width="1"/>
<line x1="465" y1="404" x2="465" y2="534" stroke="#A0A0A0" stroke-width="1"/>
<rect x="320" y="404" width="235" height="130" fill="none" stroke="#777777" stroke-width="1.5"/>
<path d="M265,159.0 C292.5,159.0 292.5,443.0 320,443.0" fill="none" stroke="#0072B2" stroke-width="1.4" stroke-opacity="0.85"/>
<circle cx="265" cy="159.0" r="3.5" fill="#0072B2"/>
<circle cx="320" cy="443.0" r="3.5" fill="#0072B2"/>
<path d="M265,211.0 C292.5,211.0 292.5,469.0 320,469.0" fill="none" stroke="#0072B2" stroke-width="1.4" stroke-opacity="0.85"/>
<circle cx="265" cy="211.0" r="3.5" fill="#0072B2"/>
<circle cx="320" cy="469.0" r="3.5" fill="#0072B2"/>
<path d="M265,263.0 C292.5,263.0 292.5,495.0 320,495.0" fill="none" stroke="#0072B2" stroke-width="1.4" stroke-opacity="0.85"/>
<circle cx="265" cy="263.0" r="3.5" fill="#0072B2"/>
<circle cx="320" cy="495.0" r="3.5" fill="#0072B2"/>
<path d="M265,341.0 C292.5,341.0 292.5,521.0 320,521.0" fill="none" stroke="#0072B2" stroke-width="1.4" stroke-opacity="0.85"/>
<circle cx="265" cy="341.0" r="3.5" fill="#0072B2"/>
<circle cx="320" cy="521.0" r="3.5" fill="#0072B2"/>
<text x="615" y="110" font-size="14" font-weight="bold" fill="#222222" text-anchor="start" font-family="Consolas, Menlo, 'Courier New', monospace">result</text>
<rect x="615" y="120" width="345" height="26" fill="#E4E4E4" stroke="#A0A0A0" stroke-width="1"/>
<text x="623" y="138.0" font-size="13" font-weight="bold" fill="#222222" text-anchor="start" font-family="Consolas, Menlo, 'Courier New', monospace">flight</text>
<text x="693" y="138.0" font-size="13" font-weight="bold" fill="#222222" text-anchor="start" font-family="Consolas, Menlo, 'Courier New', monospace">carrier</text>
<text x="768" y="138.0" font-size="13" font-weight="bold" fill="#222222" text-anchor="start" font-family="Consolas, Menlo, 'Courier New', monospace">dep_delay</text>
<text x="858" y="138.0" font-size="13" font-weight="bold" fill="#222222" text-anchor="start" font-family="Consolas, Menlo, 'Courier New', monospace">carrier_avg</text>
<rect x="615" y="146" width="345" height="26" fill="#D3EFE6" stroke="#A0A0A0" stroke-width="1"/>
<rect x="615" y="146" width="5" height="26" fill="#009E73"/>
<text x="623" y="164.0" font-size="13" font-weight="normal" fill="#222222" text-anchor="start">f4</text>
<text x="693" y="164.0" font-size="13" font-weight="normal" fill="#222222" text-anchor="start">AA</text>
<text x="768" y="164.0" font-size="13" font-weight="normal" fill="#222222" text-anchor="start">20</text>
<rect x="852" y="148" width="106" height="22" rx="3" fill="#D3EFE6" stroke="#009E73" stroke-width="2"/>
<text x="858" y="164.0" font-size="13" font-weight="normal" fill="#222222" text-anchor="start">6</text>
<rect x="615" y="172" width="345" height="26" fill="#D3EFE6" stroke="#A0A0A0" stroke-width="1"/>
<rect x="615" y="172" width="5" height="26" fill="#009E73"/>
<text x="623" y="190.0" font-size="13" font-weight="normal" fill="#222222" text-anchor="start">f7</text>
<text x="693" y="190.0" font-size="13" font-weight="normal" fill="#222222" text-anchor="start">AA</text>
<text x="768" y="190.0" font-size="13" font-weight="normal" fill="#222222" text-anchor="start">-8</text>
<rect x="852" y="174" width="106" height="22" rx="3" fill="#D3EFE6" stroke="#009E73" stroke-width="2"/>
<text x="858" y="190.0" font-size="13" font-weight="normal" fill="#222222" text-anchor="start">6</text>
<rect x="615" y="198" width="345" height="26" fill="#FCEDCC" stroke="#A0A0A0" stroke-width="1"/>
<rect x="615" y="198" width="5" height="26" fill="#C98500"/>
<text x="623" y="216.0" font-size="13" font-weight="normal" fill="#222222" text-anchor="start">f2</text>
<text x="693" y="216.0" font-size="13" font-weight="normal" fill="#222222" text-anchor="start">DL</text>
<text x="768" y="216.0" font-size="13" font-weight="normal" fill="#222222" text-anchor="start">5</text>
<rect x="852" y="200" width="106" height="22" rx="3" fill="#D3EFE6" stroke="#009E73" stroke-width="2"/>
<text x="858" y="216.0" font-size="13" font-weight="normal" fill="#222222" text-anchor="start">17.5</text>
<rect x="615" y="224" width="345" height="26" fill="#FCEDCC" stroke="#A0A0A0" stroke-width="1"/>
<rect x="615" y="224" width="5" height="26" fill="#C98500"/>
<text x="623" y="242.0" font-size="13" font-weight="normal" fill="#222222" text-anchor="start">f6</text>
<text x="693" y="242.0" font-size="13" font-weight="normal" fill="#222222" text-anchor="start">DL</text>
<text x="768" y="242.0" font-size="13" font-weight="normal" fill="#222222" text-anchor="start">30</text>
<rect x="852" y="226" width="106" height="22" rx="3" fill="#D3EFE6" stroke="#009E73" stroke-width="2"/>
<text x="858" y="242.0" font-size="13" font-weight="normal" fill="#222222" text-anchor="start">17.5</text>
<rect x="615" y="250" width="345" height="26" fill="#DCEAF5" stroke="#A0A0A0" stroke-width="1"/>
<rect x="615" y="250" width="5" height="26" fill="#0072B2"/>
<text x="623" y="268.0" font-size="13" font-weight="normal" fill="#222222" text-anchor="start">f1</text>
<text x="693" y="268.0" font-size="13" font-weight="normal" fill="#222222" text-anchor="start">UA</text>
<text x="768" y="268.0" font-size="13" font-weight="normal" fill="#222222" text-anchor="start">12</text>
<rect x="852" y="252" width="106" height="22" rx="3" fill="#D3EFE6" stroke="#009E73" stroke-width="2"/>
<text x="858" y="268.0" font-size="13" font-weight="normal" fill="#222222" text-anchor="start">7.75</text>
<rect x="615" y="276" width="345" height="26" fill="#DCEAF5" stroke="#A0A0A0" stroke-width="1"/>
<rect x="615" y="276" width="5" height="26" fill="#0072B2"/>
<text x="623" y="294.0" font-size="13" font-weight="normal" fill="#222222" text-anchor="start">f3</text>
<text x="693" y="294.0" font-size="13" font-weight="normal" fill="#222222" text-anchor="start">UA</text>
<text x="768" y="294.0" font-size="13" font-weight="normal" fill="#222222" text-anchor="start">-3</text>
<rect x="852" y="278" width="106" height="22" rx="3" fill="#D3EFE6" stroke="#009E73" stroke-width="2"/>
<text x="858" y="294.0" font-size="13" font-weight="normal" fill="#222222" text-anchor="start">7.75</text>
<rect x="615" y="302" width="345" height="26" fill="#DCEAF5" stroke="#A0A0A0" stroke-width="1"/>
<rect x="615" y="302" width="5" height="26" fill="#0072B2"/>
<text x="623" y="320.0" font-size="13" font-weight="normal" fill="#222222" text-anchor="start">f5</text>
<text x="693" y="320.0" font-size="13" font-weight="normal" fill="#222222" text-anchor="start">UA</text>
<text x="768" y="320.0" font-size="13" font-weight="normal" fill="#222222" text-anchor="start">7</text>
<rect x="852" y="304" width="106" height="22" rx="3" fill="#D3EFE6" stroke="#009E73" stroke-width="2"/>
<text x="858" y="320.0" font-size="13" font-weight="normal" fill="#222222" text-anchor="start">7.75</text>
<rect x="615" y="328" width="345" height="26" fill="#DCEAF5" stroke="#A0A0A0" stroke-width="1"/>
<rect x="615" y="328" width="5" height="26" fill="#0072B2"/>
<text x="623" y="346.0" font-size="13" font-weight="normal" fill="#222222" text-anchor="start">f8</text>
<text x="693" y="346.0" font-size="13" font-weight="normal" fill="#222222" text-anchor="start">UA</text>
<text x="768" y="346.0" font-size="13" font-weight="normal" fill="#222222" text-anchor="start">15</text>
<rect x="852" y="330" width="106" height="22" rx="3" fill="#D3EFE6" stroke="#009E73" stroke-width="2"/>
<text x="858" y="346.0" font-size="13" font-weight="normal" fill="#222222" text-anchor="start">7.75</text>
<line x1="685" y1="120" x2="685" y2="354" stroke="#A0A0A0" stroke-width="1"/>
<line x1="760" y1="120" x2="760" y2="354" stroke="#A0A0A0" stroke-width="1"/>
<line x1="850" y1="120" x2="850" y2="354" stroke="#A0A0A0" stroke-width="1"/>
<rect x="615" y="120" width="345" height="234" fill="none" stroke="#777777" stroke-width="1.5"/>
<path d="M565,178.0 C590.0,178.0 590.0,172.0 615,172.0" fill="none" stroke="#009E73" stroke-width="2.5" stroke-opacity="0.85"/>
<circle cx="565" cy="178.0" r="4.5" fill="#009E73"/>
<circle cx="615" cy="172.0" r="4.5" fill="#009E73"/>
<path d="M565,306.0 C590.0,306.0 590.0,224.0 615,224.0" fill="none" stroke="#C98500" stroke-width="2.5" stroke-opacity="0.85"/>
<circle cx="565" cy="306.0" r="4.5" fill="#C98500"/>
<circle cx="615" cy="224.0" r="4.5" fill="#C98500"/>
<path d="M565,460.0 C590.0,460.0 590.0,302.0 615,302.0" fill="none" stroke="#0072B2" stroke-width="2.5" stroke-opacity="0.85"/>
<circle cx="565" cy="460.0" r="4.5" fill="#0072B2"/>
<circle cx="615" cy="302.0" r="4.5" fill="#0072B2"/>
<text x="615" y="384" font-size="14" font-weight="bold" fill="#222222" text-anchor="start">8 rows in, 8 rows out.</text>
<text x="615" y="404" font-size="14" font-weight="normal" fill="#555555" text-anchor="start">Each row keeps its own dep_delay and gains</text>
<text x="615" y="424" font-size="14" font-weight="normal" fill="#555555" text-anchor="start">its partition's average beside it.</text>
<text x="615" y="444" font-size="14" font-weight="normal" fill="#555555" text-anchor="start">Compare GROUP BY, which returned 3 rows.</text>
<rect x="30" y="564" width="560" height="102" rx="8" fill="#FAFAFA" stroke="#A0A0A0" stroke-width="1.5"/>
<text x="44" y="586" font-size="13" font-weight="normal" fill="#222222" text-anchor="start" font-family="Consolas, Menlo, 'Courier New', monospace">SELECT flight, carrier, dep_delay,</text>
<text x="44" y="604" font-size="13" font-weight="normal" fill="#222222" text-anchor="start" font-family="Consolas, Menlo, 'Courier New', monospace">       AVG(dep_delay) OVER (PARTITION BY carrier)</text>
<text x="44" y="622" font-size="13" font-weight="normal" fill="#222222" text-anchor="start" font-family="Consolas, Menlo, 'Courier New', monospace">         AS carrier_avg</text>
<text x="44" y="640" font-size="13" font-weight="normal" fill="#222222" text-anchor="start" font-family="Consolas, Menlo, 'Courier New', monospace">FROM flights;</text>
</svg>
